<svg xmlns="http://www.w3.org/2000/svg" width="451.264" height="760.749" viewBox="0 0 451.264 760.749">
  <g id="good2" transform="translate(-896.28 -109.626)">
    <path id="パス_116" data-name="パス 116" d="M1553.089-1474.621c2.93,4.474,5.961,8.892,8.761,13.423L1545-1462.812a6.427,6.427,0,0,0-6.494,3.836c-1.268,3.19.618,6.823,3.434,8.465a23.877,23.877,0,0,0,5,1.711l-26.992,29.755-69.414,30.253a26.9,26.9,0,0,0-7.213,4.632l-.146.13a26.949,26.949,0,0,0-6.1,8,26.874,26.874,0,0,0-2.78,10.242c-2.573,38.931-4.389,77.731-1.622,116.748,1.906,26.9,2.922,58.72,13.118,84.053,1.829,4.545,5.043,7.807,8.965,10.625,1.109.8,10.005,5.107,9.985,5.484-.041.693-9.03,154.529-9.03,154.529h295.411c-.215,0-1.313-23.207-1.386-24.521q-2.353-41.521-4.7-83.042-1.079-19.05-2.154-38.1c-.362-6.355-4.21-22.31,3.58-22.62,6.616-.265,12.045-5.065,16.869-9.6,15.154-14.244,19.99-24.56,17.47-44.527-.228-1.793-6.937-55-6.937-55l-14.878-101.168c-5.693-18.979-29.113-24.128-45.844-31-6.462-2.654-12.781-5.681-19.141-8.493-4.019-1.78-11.96-3.483-15.109-6.632l-30.251-30.251V-1471s.077-11.7.077-11.7c0-.772,1.638-2.654,2.1-3.426a85.044,85.044,0,0,0,10.3-26.163c2.129-.695,4.824-1.109,6.77-2.2,9.713-5.478,13.309-17.694,11.639-28.195a10.151,10.151,0,0,0-1.122-3.637c-.488-.792-2.577-2.288-2.081-3.324l6.945-14.715c2.044-10.8,3.836-20.851,2.471-31.925a92.105,92.105,0,0,0-31.913-58.929c-12.2-10.184-27.183-17.129-43.044-18.84-14.386-1.552-31.048.455-43.524,8.237-3.938,2.458-8.2,4.5-12.269,6.738-1.751.959-4.592,1.215-6.6,1.886-19.006,6.36-29.454,26.374-32.953,44.86a104.1,104.1,0,0,0-1.191,30.9c1.219,10.944,4.677,21.359,7.514,31.954.309,1.195-1.329,2.487-1.894,3.369a13.481,13.481,0,0,0-1.691,5.1c-2.3,13.545,6.921,24.383,18.718,29.381a96.769,96.769,0,0,0,9.375,25.756c2.081,3.857,4.413,7.575,6.819,11.253" transform="translate(-436.634 1864.417)" fill="#fff"/>
    <path id="パス_117" data-name="パス 117" d="M1795.137-1549.766l7.087-10.676c4.775-15.3,6.441-29.024,3.414-44.946-3.5-18.405-11.687-33.124-25.257-46.019a90.537,90.537,0,0,0-28.43-18.563c-19.966-8.022-45.271-7.815-64.172,3.527l-10.692,6.421-11.094,1.987c-15.125,9.692-23.96,24.294-28.012,41.7-5.055,21.745-.3,48.6,2.719,70.267l1.751-3.214a11.784,11.784,0,0,1,3.511-3.95c.024-.02.053-.037.077-.057a11.765,11.765,0,0,1,5.515-2.073c1.8-.2,3.767-.284,4.6.077-1.2-.524.935-13.817,1.431-14.979,4.734-11.123,9.176-21.839,17.511-30.755a86.335,86.335,0,0,1,7.876-7.445c1.414-1.178,11.562-11.623,13.338-12.448,1.666,9.286,2.219,15.434,6.856,23.18,7.173,11.98,15.052,22.038,26.789,29.463l6.307,3.015-1.857-3.723c-4.621-9.265-7.794-25.679-2.463-34.615,5.913,8.575,15.406,26.492,23.416,33.327,5.515,4.706,10.631,9.838,17.174,13.021,2.93,1.422,10.9,8.453,12.009,7.8l1.2-.662a9.132,9.132,0,0,1,9.4.337" transform="translate(-558.019 1865.003)" fill="#606060"/>
    <path id="パス_118" data-name="パス 118" d="M1519.945-1088.268l-69.414,30.254a26.9,26.9,0,0,0-7.213,4.632l-.146.13a26.952,26.952,0,0,0-6.1,8,26.876,26.876,0,0,0-2.78,10.242c-2.573,38.931-4.389,77.731-1.622,116.748,1.906,26.9,2.922,58.72,13.118,84.052l8.965,10.626,9.985,5.484,166.905-23.349-4.072-89.859-28.057,5.885-17.344-103.152q-5.267-4.247-10.529-8.494c-4.933-3.98-11.066-7.8-13.451-13.995-1.605-4.177-1.955-8.819-3.418-13.053q-2.341-1.7-4.686-3.4c-3.158-2.29-7.319-5.687-6.5-10.1a6.709,6.709,0,0,1,2.459-3.958c.744-.61,2.568-.935,3.109-1.557.268-.3-1.63-5.246-1.7-5.925-.3-2.889.333-6.9,3.243-8.327,1.081-.528,2.361-.435,3.454-1.024a31.691,31.691,0,0,1-2.357-6.409c-1.061-5.015.975-7.685,4.8-10.55l-11.777-2.479-7.234,11.074Z" transform="translate(-436.634 1533.945)" fill="#d3d7dd"/>
    <path id="パス_119" data-name="パス 119" d="M1786.785-345.1H1491.37L1500.4-499.63l166.905-23.349-.992-13.213,39.671-10.258-9.77-30.417,15.061-4.484,50.253,61.02,4.3,4.592,8.193,2.681h3.052s9.5,167.957,9.713,167.957" transform="translate(-472.304 1215.475)" fill="#d3d7dd"/>
    <path id="パス_120" data-name="パス 120" d="M2009.067-842.44c15.154-14.244,19.986-24.56,17.47-44.527-.228-1.793-6.937-55-6.937-55l-14.878-101.168c-5.693-18.979-29.113-24.127-45.844-31-6.462-2.65-12.781-5.681-19.141-8.493-4.019-1.78-11.96-3.483-15.109-6.632l-30.251-30.251v13.573l-19.644,48.93,11.57,14.878,3.97-4.3,19.969,21.159-35.51,52.568-20.169-18.514-9.314,64.8,46.856-9.828L1975.9-835.2l11.245,2.681h11.9Z" transform="translate(-682.374 1534.936)" fill="#d3d7dd"/>
    <path id="パス_121" data-name="パス 121" d="M1820.7-1489.117a2.837,2.837,0,0,1-1.069-.207c-22.53-9.176-40.033-34.294-41.609-59.73a2.843,2.843,0,0,1,2.662-3.015,2.845,2.845,0,0,1,3.015,2.662c1.451,23.367,17.466,46.421,38.078,54.813a2.843,2.843,0,0,1,1.561,3.706,2.843,2.843,0,0,1-2.637,1.772" transform="translate(-642.462 1791.715)" fill="#3d3939"/>
    <path id="パス_122" data-name="パス 122" d="M1911.4-1449.778a2.869,2.869,0,0,1-1.471-.411c-11.875-7.177-20.738-14.609-27.89-23.391-4.332-5.316-10.5-13.354-14.024-21.774a2.846,2.846,0,0,1,1.524-3.723,2.839,2.839,0,0,1,3.723,1.524c3.247,7.742,9.079,15.337,13.187,20.38,6.73,8.258,15.125,15.288,26.427,22.115a2.851,2.851,0,0,1,.963,3.905,2.844,2.844,0,0,1-2.438,1.374" transform="translate(-695.758 1760.385)" fill="#3d3939"/>
    <path id="パス_123" data-name="パス 123" d="M1680.587-1303.811a91.492,91.492,0,0,1-5.864-7.486c-7.254-10.355-12.049-23.339-14.65-39.691a2.845,2.845,0,0,0-3.259-2.361,2.841,2.841,0,0,0-2.361,3.255c.325,2.056.691,4.06,1.085,6.019l-.126-.085a33.217,33.217,0,0,1-9.408-10.233,22.088,22.088,0,0,1-2.406-14.361,13.387,13.387,0,0,1,3.292-7.542c1-.988,2.4-1.784,5.189-.622.057,2.426.126,4.958.236,6.612a2.846,2.846,0,0,0,2.837,2.654c.065,0,.13,0,.2,0a2.847,2.847,0,0,0,2.646-3.032c-.122-1.8-.191-4.856-.252-7.551-.032-1.312-.061-2.52-.089-3.426a2.836,2.836,0,0,0-2.938-2.747,2.847,2.847,0,0,0-2.455,1.577,9.4,9.4,0,0,0-9.359,2.483c-3.223,3.17-4.458,7.6-4.929,10.761a27.794,27.794,0,0,0,3.125,18.076,38.922,38.922,0,0,0,11.029,12,49.327,49.327,0,0,0,5.222,3.162,88.355,88.355,0,0,0,12.72,28.325,95.105,95.105,0,0,0,6.23,7.957,2.847,2.847,0,0,0,2.15.979,2.827,2.827,0,0,0,1.865-.7,2.84,2.84,0,0,0,.276-4.011" transform="translate(-559.125 1692.188)" fill="#3d3939"/>
    <path id="パス_124" data-name="パス 124" d="M1685.306-1469.555a2.845,2.845,0,0,1-1.113-.228,2.847,2.847,0,0,1-1.5-3.731c.695-1.638,1.406-3.2,2.073-4.657a113.33,113.33,0,0,1,13.268-21.9,102.757,102.757,0,0,1,8.571-9.778,2.844,2.844,0,0,1,4.023.008,2.848,2.848,0,0,1,0,4.023,97.384,97.384,0,0,0-8.087,9.221,107.316,107.316,0,0,0-12.6,20.8c-.654,1.422-1.345,2.942-2.012,4.511a2.842,2.842,0,0,1-2.617,1.735" transform="translate(-585.74 1767.142)" fill="#3d3939"/>
    <path id="パス_125" data-name="パス 125" d="M1867.343-1563.012a2.768,2.768,0,0,1-.841-.13,2.838,2.838,0,0,1-1.874-3.56,102.05,102.05,0,0,0,2.894-10.68,74.864,74.864,0,0,0,.447-24.684c-1.8-12.736-6.807-30.95-20.384-45.409a102.009,102.009,0,0,0-20.1-16.657c-18.035-11.314-38.139-14.536-58.145-9.335-6.214,1.617-14.207,4.08-20.933,8.806a2.842,2.842,0,0,1-3.962-.691,2.845,2.845,0,0,1,.691-3.962c7.473-5.25,16.1-7.92,22.774-9.656,21.559-5.612,43.207-2.15,62.6,10.017a107.842,107.842,0,0,1,21.225,17.584c11.549,12.305,19.112,29.077,21.867,48.5a80.376,80.376,0,0,1-.5,26.565,106.028,106.028,0,0,1-3.044,11.285,2.853,2.853,0,0,1-2.719,2" transform="translate(-622.227 1868.592)" fill="#3d3939"/>
    <path id="パス_126" data-name="パス 126" d="M1633.908-1537.644a2.847,2.847,0,0,1-2.763-2.178,135.984,135.984,0,0,1-3-43.316c1.727-20.717,14.378-45.6,35.217-53.078A2.845,2.845,0,0,1,1667-1634.5a2.843,2.843,0,0,1-1.719,3.637c-18.576,6.661-29.889,29.288-31.466,48.193a130.34,130.34,0,0,0,2.865,41.508,2.844,2.844,0,0,1-2.1,3.434,2.728,2.728,0,0,1-.671.081" transform="translate(-553.178 1841.762)" fill="#3d3939"/>
    <path id="パス_127" data-name="パス 127" d="M1643.876-1074.223a2.83,2.83,0,0,1-1.971-.792,2.844,2.844,0,0,1-.077-4.023l18.2-18.929a2.844,2.844,0,0,1,4.023-.081,2.845,2.845,0,0,1,.081,4.023l-18.206,18.933a2.83,2.83,0,0,1-2.052.87" transform="translate(-561.146 1522.667)" fill="#3d3939"/>
    <path id="パス_128" data-name="パス 128" d="M1435.389-804.772a2.846,2.846,0,0,1-2.788-2.305c-3.341-17.283-13.565-81.51-4.958-182.349a2.81,2.81,0,0,1,.211-.852,38.4,38.4,0,0,1,19.994-20.436l13.48-5.964,32.9-14.227a2.839,2.839,0,0,1,3.739,1.479,2.848,2.848,0,0,1-1.479,3.743l-32.885,14.217-13.459,5.955a32.738,32.738,0,0,0-16.873,17.02c-8.477,99.844,1.613,163.259,4.913,180.334a2.846,2.846,0,0,1-2.255,3.333,2.873,2.873,0,0,1-.545.052" transform="translate(-432.477 1482.478)" fill="#3d3939"/>
    <path id="パス_129" data-name="パス 129" d="M1957.582-1244.26l-7.221-3.125-28.162-29.288v-28.943a2.819,2.819,0,0,0-.792-1.967,89.036,89.036,0,0,0,11.907-27.154,49.092,49.092,0,0,0,5.36-3.312,38.983,38.983,0,0,0,10.9-12.118,27.767,27.767,0,0,0,2.922-18.108c-.5-3.154-1.788-7.571-5.047-10.708-2.454-2.365-6.738-4.422-13.2-.784a2.841,2.841,0,0,0-1.085,3.873,2.845,2.845,0,0,0,3.873,1.085c3.641-2.048,5.311-1.187,6.466-.073a13.366,13.366,0,0,1,3.377,7.506,22.068,22.068,0,0,1-2.247,14.386,33.135,33.135,0,0,1-9.294,10.334c-.073.057-.15.106-.228.163.345-1.743.671-3.511.959-5.328a2.845,2.845,0,0,0-2.361-3.259,2.843,2.843,0,0,0-3.255,2.361c-2.507,15.69-7.124,28.276-14.106,38.484a96.717,96.717,0,0,1-18.7,20.283,76.912,76.912,0,0,1-9.818,6.888,2.842,2.842,0,0,0-1.028,3.889,2.843,2.843,0,0,0,2.459,1.414,2.82,2.82,0,0,0,1.43-.39,82.461,82.461,0,0,0,10.554-7.392,103.235,103.235,0,0,0,15.272-15.377v30.71l-20.238,9.7a2.843,2.843,0,0,0-1.333,3.8,2.837,2.837,0,0,0,2.564,1.613,2.8,2.8,0,0,0,1.227-.281l17.779-8.518v1.24l-10.688,24.383a2.845,2.845,0,0,0,1.463,3.747,2.784,2.784,0,0,0,1.142.24,2.841,2.841,0,0,0,2.6-1.7l10.927-24.927a2.85,2.85,0,0,0,.24-1.142v-6.4l24.456,25.435a2.849,2.849,0,0,0,.923.638l7.75,3.353a2.834,2.834,0,0,0,1.126.232,2.845,2.845,0,0,0,2.613-1.715,2.84,2.84,0,0,0-1.483-3.739" transform="translate(-706.805 1690.603)" fill="#3d3939"/>
    <path id="パス_130" data-name="パス 130" d="M2016.344-973.5a2.829,2.829,0,0,1-1.386-.364,2.85,2.85,0,0,1-1.093-3.872l9.794-17.466-15.483-6.457a2.855,2.855,0,0,1-1.634-1.82,2.846,2.846,0,0,1,.386-2.415l7.827-11.4a2.846,2.846,0,0,1,3.954-.74,2.846,2.846,0,0,1,.736,3.958l-5.844,8.518,15.195,6.339a2.847,2.847,0,0,1,1.593,1.7,2.826,2.826,0,0,1-.207,2.319l-11.35,20.252a2.847,2.847,0,0,1-2.487,1.454" transform="translate(-778.051 1474.994)" fill="#3d3939"/>
    <path id="パス_131" data-name="パス 131" d="M1690.726-874.977a2.84,2.84,0,0,1-2.483-1.454l-66.582-118.774a2.858,2.858,0,0,1-.207-2.319,2.841,2.841,0,0,1,1.6-1.7l15.195-6.339-5.848-8.518a2.854,2.854,0,0,1,.736-3.958,2.854,2.854,0,0,1,3.958.736l7.827,11.408a2.845,2.845,0,0,1,.382,2.416,2.833,2.833,0,0,1-1.634,1.82l-15.479,6.457L1693.2-879.214a2.845,2.845,0,0,1-1.089,3.872,2.832,2.832,0,0,1-1.39.364" transform="translate(-549.432 1474.995)" fill="#3d3939"/>
    <path id="パス_132" data-name="パス 132" d="M2200.779-226.043a2.843,2.843,0,0,1-2.837-2.68l-8.469-146.41a2.848,2.848,0,0,1,2.678-3,2.845,2.845,0,0,1,3,2.676l8.465,146.41a2.841,2.841,0,0,1-2.674,3c-.057,0-.114,0-.167,0" transform="translate(-886.708 1094.847)" fill="#3d3939"/>
    <path id="パス_133" data-name="パス 133" d="M1780.838-1060.022c-1.069-6.722-1.837-11.578-2.134-13.591a2.77,2.77,0,0,0-.345-1c-4.917-8.558-12.533-12.276-21.355-16.581-1.142-.557-2.312-1.127-3.507-1.723q-.079-.04-.159-.074l-2.763-1.172-.041-.017-20.9-8.474a2.837,2.837,0,0,0-3.7,1.569,2.839,2.839,0,0,0,1.565,3.7l20.88,8.467,2.666,1.129c1.182.59,2.341,1.155,3.47,1.706,8.128,3.967,14.585,7.119,18.649,13.85.345,2.3,1.077,6.91,2.06,13.1,5.925,37.383,21.664,136.685,21.607,162.3a20.97,20.97,0,0,1-5.458,14.083l-14.475,15.941a21,21,0,0,1-16.056,6.883,21,21,0,0,1-15.711-7.633l-49.286-59.71s0-.008-.008-.012l-25.379-30.748v0l-3.064-3.71-22.16-26.851,39.191-56.716,50.692,50.368.036.036,38.35,36.753a2.847,2.847,0,0,0,4.023-.085,2.847,2.847,0,0,0-.085-4.022L1739.1-998.993l-53.086-52.747-.024-.022-.024-.024-21.729-20.615a2.849,2.849,0,0,0-3.974.054l-1.426,1.432-8.229-8.87a9.61,9.61,0,0,1-2.507-5.6l-2.129-22.34a15.235,15.235,0,0,0-4.832-9.757l-36.92-34.116a14.507,14.507,0,0,0-5.75-3.247l-11.663-3.385a14.411,14.411,0,0,0-2.788-.52l-21.615-1.841a2.431,2.431,0,0,0-.244-.012,9.112,9.112,0,0,0-9.1,9.1,9.114,9.114,0,0,0,8.449,9.078l8.315,1.114a11.885,11.885,0,0,0-3.373,8.286v.191a11.557,11.557,0,0,0,2.5,7.152,10.594,10.594,0,0,0-6.531,8.632,10.515,10.515,0,0,0,1.971,7.384,10.3,10.3,0,0,0-3.259,3.568,10.32,10.32,0,0,0,2.491,12.96l5.429,4.452a7.3,7.3,0,0,1,2.243,3.17l4.2,11.6a18.27,18.27,0,0,0,3.678,6.094l4.747,5.221a17.727,17.727,0,0,0,1.585,1.545l7.977,6.89a18.259,18.259,0,0,0,5.913,3.426l2.65.932a12.7,12.7,0,0,1,5.23,3.493l3.369,3.757a2.833,2.833,0,0,0,2.117.946,2.843,2.843,0,0,0,1.9-.727,2.844,2.844,0,0,0,.215-4.017l-3.369-3.757a18.373,18.373,0,0,0-7.579-5.063l-2.65-.931a12.589,12.589,0,0,1-4.08-2.364l-7.977-6.89a12.568,12.568,0,0,1-1.093-1.066l-4.747-5.221a12.67,12.67,0,0,1-2.54-4.206l-4.2-11.6a13.017,13.017,0,0,0-3.982-5.63l-5.429-4.454a4.623,4.623,0,0,1-1.117-5.811,4.635,4.635,0,0,1,3.9-2.39l4.06,1.447,4.34,5.116a2.838,2.838,0,0,0,4.007.329,2.824,2.824,0,0,0,1.008-2.17,2.836,2.836,0,0,0-.675-1.837l-4.836-5.706a0,0,0,0,1,0,0h0a0,0,0,0,1,0,0h0a0,0,0,0,1,0,0h0l-.008-.008h0a0,0,0,0,0,0,0h0s0,0,0,0a.009.009,0,0,0-.008-.008h0v0l0,0a2.812,2.812,0,0,0-.894-.675l-2.337-1.13a10.328,10.328,0,0,0-3.531-.979,4.844,4.844,0,0,1-3.036-5.047,4.88,4.88,0,0,1,5.307-4.312l6.421.634,9.92,11.306a2.847,2.847,0,0,0,4.015.26,2.832,2.832,0,0,0,.967-2.142,2.823,2.823,0,0,0-.707-1.873l-10.659-12.151s0,0,0,0h0s0,0,0-.008h0a.009.009,0,0,0-.008-.008v0l-.008-.008h0s0,0-.008-.008h0a2.76,2.76,0,0,0-.622-.512h0l-.008-.008h-.008a0,0,0,0,0,0,0h0a0,0,0,0,1,0,0s0,0,0,0h-.008v0h0a0,0,0,0,1,0,0h0l0,0h0l0,0h0a3.088,3.088,0,0,0-.423-.2h0a.015.015,0,0,1-.012,0h0s0,0,0,0h0s0,0-.008,0h0a.012.012,0,0,1-.008,0h0a.012.012,0,0,0-.008,0l-.012,0h0a.015.015,0,0,1-.012,0h0c-.041-.012-.081-.028-.122-.041l-5.616-1.63a5.9,5.9,0,0,1-4.23-5.632v-.191a6.2,6.2,0,0,1,5.718-6.181l4.275-.309,13.8,9.591a2.843,2.843,0,0,0,3.958-.711,2.826,2.826,0,0,0,.512-1.621,2.829,2.829,0,0,0-1.223-2.337l-14.63-10.168,0,0h0l0,0h0l0,0h0l0,0s0,0-.008,0h0a0,0,0,0,1,0,0h0l0,0a0,0,0,0,1,0,0h0a0,0,0,0,0,0,0s-.008,0-.012-.008h0a0,0,0,0,1,0,0l-.02-.012h0a2.829,2.829,0,0,0-1.158-.423l-21.14-2.832c-.069-.008-.138-.016-.207-.02a3.414,3.414,0,0,1-3.21-3.406,3.412,3.412,0,0,1,3.308-3.406l21.477,1.829a8.865,8.865,0,0,1,1.686.313l11.663,3.389a8.774,8.774,0,0,1,3.474,1.963l36.916,34.112a9.555,9.555,0,0,1,3.032,6.12l2.129,22.339a15.329,15.329,0,0,0,4,8.928l8.375,9.031-39.155,39.24a2.844,2.844,0,0,0-.833,2.04,2.854,2.854,0,0,0,.874,2.022l19.579,18.792a2.842,2.842,0,0,0,1.971.792,2.832,2.832,0,0,0,2.052-.875,2.844,2.844,0,0,0-.081-4.022l-17.487-16.783,40.6-40.687,17.954,17.029-40.963,59.279a2.847,2.847,0,0,0,.146,3.428l19.746,23.925-14.516,4.222-23.664,4.254,6.348-45.2a2.844,2.844,0,0,0-2.422-3.213,2.843,2.843,0,0,0-3.21,2.421l-4.527,32.234-13.8-71.139a2.849,2.849,0,0,0-3.336-2.251,2.848,2.848,0,0,0-2.251,3.334l16.495,85.019-85.275,15.331a2.848,2.848,0,0,0,.175-1.4l-11.407-88.678a2.843,2.843,0,0,0-3.182-2.458,2.84,2.84,0,0,0-2.459,3.184l11.4,88.678a2.821,2.821,0,0,0,.707,1.533l-6.336,1.138a2.847,2.847,0,0,0-2.3,3.3,2.85,2.85,0,0,0,3.3,2.3l123.715-22.242,4.34,82.936-157.4,21.53a21.141,21.141,0,0,1-22.01-12.183,2.846,2.846,0,0,0-3.763-1.424,2.845,2.845,0,0,0-1.422,3.763,26.845,26.845,0,0,0,17.474,14.8l-8.636,149.385a2.841,2.841,0,0,0,2.674,3c.057,0,.11,0,.167,0a2.843,2.843,0,0,0,2.837-2.68l8.607-148.823c.423.021.849.035,1.276.035a26.351,26.351,0,0,0,3.564-.243l160-21.885a2.846,2.846,0,0,0,2.458-2.967l-4.531-86.52,14.853-4.319.268.328,25.293,30.645-7.526,2.261-3.979-13.118a2.841,2.841,0,0,0-3.544-1.9,2.843,2.843,0,0,0-2.02,2.7,2.17,2.17,0,0,0,.008.281,3.094,3.094,0,0,0,.114.565l13.285,43.808-20.819,5.119a2.848,2.848,0,0,0-2.085,3.442,2.85,2.85,0,0,0,2.763,2.166,2.834,2.834,0,0,0,.679-.083l23.737-5.836a2.851,2.851,0,0,0,1.792-1.355,2.841,2.841,0,0,0,.248-2.233l-8.526-28.118,9.8-2.945,48.083,58.256a26.7,26.7,0,0,0,19.966,9.7c.211,0,.423.007.634.007a26.7,26.7,0,0,0,19.77-8.753l14.475-15.941a26.646,26.646,0,0,0,6.933-17.9c.057-26.07-15.735-125.7-21.676-163.2" transform="translate(-454.97 1559.328)" fill="#3d3939"/>
    <path id="パス_134" data-name="パス 134" d="M1840.665-389.74a2.846,2.846,0,0,0-2.845,2.845v119.108a2.846,2.846,0,0,0,2.845,2.845,2.844,2.844,0,0,0,2.845-2.845V-386.9a2.844,2.844,0,0,0-2.845-2.845" transform="translate(-677.963 1101.731)" fill="#3d3939"/>
    <path id="パス_135" data-name="パス 135" d="M1584.434-114.266a2.844,2.844,0,0,1-2.845-2.845v-18.342l-45.706,3.5a2.846,2.846,0,0,1-3.056-2.619,2.847,2.847,0,0,1,2.621-3.054l48.766-3.736a2.836,2.836,0,0,1,2.15.749,2.848,2.848,0,0,1,.914,2.087v21.413a2.846,2.846,0,0,1-2.845,2.845" transform="translate(-496.909 954.293)" fill="#3d3939"/>
    <path id="パス_136" data-name="パス 136" d="M2048.975-114.266a2.844,2.844,0,0,1-2.845-2.845v-21.413a2.844,2.844,0,0,1,.91-2.087,2.84,2.84,0,0,1,2.154-.749l48.693,3.731a2.843,2.843,0,0,1,2.617,3.054,2.841,2.841,0,0,1-3.052,2.619l-45.633-3.5v18.342a2.844,2.844,0,0,1-2.845,2.845" transform="translate(-801.62 954.293)" fill="#3d3939"/>
    <path id="パス_137" data-name="パス 137" d="M1893.974-325.082a4.309,4.309,0,0,0-4.3,4.3,4.309,4.309,0,0,0,4.3,4.305,4.31,4.31,0,0,0,4.308-4.305,4.31,4.31,0,0,0-4.308-4.3" transform="translate(-708.742 1063.349)" fill="#3d3939"/>
    <path id="パス_138" data-name="パス 138" d="M1830.508-1312.132a2.844,2.844,0,0,1-2.845-2.8l-.029-2.044c-.081-6.173-.158-12-.723-17.954a2.845,2.845,0,0,1,2.564-3.1,2.835,2.835,0,0,1,3.1,2.564c.585,6.181.667,12.4.748,18.413l.028,2.036a2.84,2.84,0,0,1-2.8,2.885h-.041" transform="translate(-671.48 1664.662)" fill="#3d3939"/>
    <path id="パス_139" data-name="パス 139" d="M1762.576-1379.95a6.231,6.231,0,0,0-6.226,6.226,6.231,6.231,0,0,0,6.226,6.226,6.234,6.234,0,0,0,6.226-6.226,6.234,6.234,0,0,0-6.226-6.226" transform="translate(-629.601 1689.538)" fill="#3d3939"/>
    <path id="パス_140" data-name="パス 140" d="M1909.136-1379.95a6.231,6.231,0,0,0-6.226,6.226,6.231,6.231,0,0,0,6.226,6.226,6.234,6.234,0,0,0,6.226-6.226,6.234,6.234,0,0,0-6.226-6.226" transform="translate(-716.602 1689.538)" fill="#3d3939"/>
    <path id="パス_141" data-name="パス 141" d="M1820-1222.451c-2.333,0-4.665-.061-6.986-.175a32.078,32.078,0,0,1-9.123-1.812,2.844,2.844,0,0,1-1.739-3.629,2.841,2.841,0,0,1,3.625-1.739,26.28,26.28,0,0,0,7.526,1.5c3.824.195,7.705.219,11.529.081,2.771-.1,7.412-.268,10.237-1.5a2.84,2.84,0,0,1,3.743,1.467,2.845,2.845,0,0,1-1.467,3.747c-3.816,1.662-8.924,1.849-12.305,1.971q-2.511.091-5.039.094" transform="translate(-656.693 1600.506)" fill="#3d3939"/>
    <path id="パス_142" data-name="パス 142" d="M1337.678-1679.391l-4.844-10.058a8.369,8.369,0,0,0,.162-7.571l-.2-.427a32.524,32.524,0,0,1-.935-25.655,44.83,44.83,0,0,0-1.5-35.835,45.311,45.311,0,0,0-60.429-21.128,44.99,44.99,0,0,0-23.083,25.732,45.011,45.011,0,0,0,1.865,34.518,45.407,45.407,0,0,0,27.447,23.757,32.231,32.231,0,0,1,19.315,16.82l.114.24a8.362,8.362,0,0,0,6.027,4.6l4.844,10.05a8.311,8.311,0,0,0,4.783,4.271,8.385,8.385,0,0,0,2.772.475,8.31,8.31,0,0,0,3.629-.837l16.121-7.766a8.325,8.325,0,0,0,4.271-4.783,8.315,8.315,0,0,0-.362-6.4" transform="translate(-325.622 1929.716)" fill="#3d3939"/>
    <path id="パス_143" data-name="パス 143" d="M1286.243-1693.179a39.7,39.7,0,0,1-24-20.77,39.658,39.658,0,0,1,18.551-52.679,39.328,39.328,0,0,1,17.117-3.922,39.626,39.626,0,0,1,35.717,22.4,39.206,39.206,0,0,1,1.3,31.332,38.249,38.249,0,0,0,1.122,30.158l.207.427a2.693,2.693,0,0,1-.443,2.983,2.514,2.514,0,0,1-.362.329s-.012.008-.02.016a2.7,2.7,0,0,1-.431.26h0L1312.7-1671.9a.276.276,0,0,1-.053.02,2.062,2.062,0,0,1-.2.085l-.077.024a1.3,1.3,0,0,1-.179.053.476.476,0,0,1-.073.016,1.531,1.531,0,0,1-.187.037c-.024,0-.049,0-.069.008a2.7,2.7,0,0,1-2.759-1.5l-.114-.24a37.932,37.932,0,0,0-22.753-19.783" transform="translate(-334.015 1921.405)" fill="#fff"/>
    <path id="パス_144" data-name="パス 144" d="M1424.96-1530.2a2.692,2.692,0,0,1-1.374,1.536l-16.117,7.766a2.678,2.678,0,0,1-2.056.118,2.665,2.665,0,0,1-1.536-1.374l-4.137-8.587,20.961-10.1,4.141,8.591a2.666,2.666,0,0,1,.118,2.052" transform="translate(-417.911 1785.045)" fill="#fff"/>
    <path id="パス_145" data-name="パス 145" d="M1291.6-1696.878a2.845,2.845,0,0,1-2.564-1.613,28.062,28.062,0,0,1-1.219-21.587,28.065,28.065,0,0,1,14.406-16.125,2.84,2.84,0,0,1,3.8,1.329,2.84,2.84,0,0,1-1.329,3.8,22.417,22.417,0,0,0-11.5,12.878,22.423,22.423,0,0,0,.971,17.243,2.842,2.842,0,0,1-1.325,3.8,2.858,2.858,0,0,1-1.235.284" transform="translate(-350.523 1901.185)" fill="#3d3939"/>
    <path id="パス_146" data-name="パス 146" d="M1208.271-1779.149a2.725,2.725,0,0,1-.512-.049l-16.194-2.93a2.846,2.846,0,0,1-2.292-3.308,2.846,2.846,0,0,1,3.308-2.292l16.19,2.934a2.847,2.847,0,0,1,2.3,3.3,2.847,2.847,0,0,1-2.8,2.341" transform="translate(-292.946 1931.629)" fill="#3d3939"/>
    <path id="パス_147" data-name="パス 147" d="M1347.678-1851.822a2.869,2.869,0,0,1-1.345-.337,2.847,2.847,0,0,1-1.158-3.853l7.8-14.5a2.846,2.846,0,0,1,3.853-1.158,2.847,2.847,0,0,1,1.158,3.853l-7.8,14.5a2.837,2.837,0,0,1-2.507,1.5" transform="translate(-385.318 1981.63)" fill="#3d3939"/>
    <path id="パス_148" data-name="パス 148" d="M1298.013-1848.785a2.844,2.844,0,0,1-2.816-2.463l-2.215-16.308a2.847,2.847,0,0,1,2.438-3.2,2.847,2.847,0,0,1,3.2,2.434l2.211,16.312a2.845,2.845,0,0,1-2.434,3.2,3.156,3.156,0,0,1-.386.024" transform="translate(-354.522 1980.906)" fill="#3d3939"/>
    <path id="パス_149" data-name="パス 149" d="M1248.142-1824.745a2.841,2.841,0,0,1-2.056-.878l-11.379-11.895a2.845,2.845,0,0,1,.089-4.023,2.848,2.848,0,0,1,4.023.089l11.379,11.895a2.848,2.848,0,0,1-.089,4.023,2.852,2.852,0,0,1-1.967.788" transform="translate(-319.475 1964.014)" fill="#3d3939"/>
  </g>
</svg>
