<svg xmlns="http://www.w3.org/2000/svg" width="439.089" height="760.698" viewBox="0 0 439.089 760.698">
  <g id="good1" transform="translate(-413 -109.677)">
    <path id="パス_90" data-name="パス 90" d="M344.754-926.169c1.645,12.515,4.348,24.96,6.549,37.39a2.56,2.56,0,0,1-2.52,3.009H113.91a2.56,2.56,0,0,1-2.537-2.9l6.4-39.468-.784-38.682-64.679-1.488c-9.736-1.606-17.224-3.216-25.012-9.919-12.9-11.11-17.044-26.479-15.157-42.79l45.956-132.1c3.788-10.89,3.637-23,9.939-33.386,7.386-12.17,19.621-15.471,32.1-20.284l30.61-15.181,25.22-18.845,25.611-7.687,2.232-8.183c-13.286-2.888-25.743-5.415-35.667-15.547-6.234-6.364-7.653-15.619-13.623-22.119l-16.27-17.722a2.545,2.545,0,0,1-.588-1.073l-2.587-9.741a2.587,2.587,0,0,1-.08-.467c-2.743-34.616,8.43-70.962,25.015-101.242a210.457,210.457,0,0,1,29.2-40.9c6.872-7.514,15.1-16.979,26.29-16.979,2.753,0,6.084.549,8.75-.158,3.65-.967,6.316-4.389,9.268-6.527a2.642,2.642,0,0,1,.772-.386c15.878-4.779,28.619-2.91,43.808,4.966,14.175,7.351,26.356,18.45,35.837,31.23,19.829,26.732,31.177,60.62,39.454,92.541,6.145,24.013-.636,51.115-13.2,71.827-7.244,11.947-19.458,24.88-33.312,28.63l-14.656,3.967,10.029,9.7,31.024,21.451A156.542,156.542,0,0,0,347.006-1206c8.594,3.46,24.433,5.944,29.2,14.876,0,0,8.622,16.226,8.672,16.456l5.49,15.924,52.318,115.458s2.715,11.443,2.731,11.5c2.207,9.311-3.641,25.522-7.372,33.944-5.441,12.28-15.317,19.658-27.84,23.831l-65.462-1.24Z" transform="translate(406.049 1756.145)" fill="#fff"/>
    <path id="パス_91" data-name="パス 91" d="M177.575-898.278l-27.59,10.485-26.649,20.561c-16.032,6.939-35.031,12.647-49.275,22.677-14.672,10.331-16.43,28.474-20.9,44.616L8.537-672.69c-4.68,13.344.091,30.433,9.031,40.791,14.419,16.706,35.137,14.768,55.065,15.633l40.384,1.753v36.933L105.5-533.234h52.2l10.051-65.919,4.423-54.3h-7.659l3.041-35.987,2.662-.717c-4.881-42.222-11.145-84.59-9.439-127.214,1.145-28.6,8.77-53.734,16.8-80.9" transform="translate(409.017 1403.609)" fill="#f6dd4f"/>
    <path id="パス_92" data-name="パス 92" d="M634.528-914.833c4.538,14.64,9.492,29.212,13.63,43.969,8.22,29.319,8.705,60.574,4.97,90.637-.622,5.011-8.114,60.22-8.342,60.195l5.465.594,3.466,27.049,4.424,1.138,1.147,3.056h10.073l1.594,3.033v6.235l-2.01,2.144-32.073,4.275,22.168,128.245h61.623l-8.09-44.633v-43.739l58.3.609c6.393.067,14.959-2.221,20.177-5.765C813.2-652.83,813.3-676.683,812.4-700.577L755.9-821.485c-5.146-15.962-10.4-27.952-26.2-36.3-3.693-1.952-36.153-12.976-36.153-16.252l-59.016-40.792" transform="translate(36.333 1413.436)" fill="#f6dd4f"/>
    <path id="パス_93" data-name="パス 93" d="M606.3-1278.789a2.847,2.847,0,0,1-1.538-.451c-4.568-2.946-9.359-6.181-13.324-10.481-11.613-12.594-17.055-29.268-22.316-45.389-1.1-3.361-2.132-6.531-3.229-9.692-3.357-9.668-7.691-20.888-14.388-30.8-4.593-6.795-13.846-18.482-24.213-20.413-6.064-1.134-9.975.939-15.248,4.222a2.847,2.847,0,0,1-3.919-.91,2.843,2.843,0,0,1,.91-3.917c6.01-3.747,11.248-6.49,19.3-4.99,11.781,2.194,21.667,13.626,27.885,22.826,7.064,10.452,11.571,22.1,15.049,32.116,1.114,3.21,2.207,6.555,3.262,9.794,5.073,15.54,10.319,31.612,21.091,43.3,3.511,3.808,7.963,6.807,12.223,9.554a2.842,2.842,0,0,1,.85,3.93,2.84,2.84,0,0,1-2.394,1.3" transform="translate(111.626 1702.643)" fill="#3d3939"/>
    <path id="パス_94" data-name="パス 94" d="M259.924-1301.236a2.846,2.846,0,0,1-2.741-2.089,87.3,87.3,0,0,1-3.04-23.724c.095-13.528,3.038-28.028,9.261-45.625,10.2-28.837,22.061-58.929,44.826-82.134l.653-.667c7.8-7.965,18.489-18.88,30.729-18.173a2.845,2.845,0,0,1,2.678,3,2.843,2.843,0,0,1-3,2.678c-9.656-.553-19.3,9.29-26.34,16.475l-.655.666c-21.95,22.375-33.537,51.814-43.523,80.049-6.007,16.983-8.847,30.889-8.936,43.767a81.624,81.624,0,0,0,2.837,22.176,2.842,2.842,0,0,1-1.99,3.495,2.856,2.856,0,0,1-.755.1" transform="translate(262.138 1745.178)" fill="#3d3939"/>
    <path id="パス_95" data-name="パス 95" d="M353.718-1219.8a2.844,2.844,0,0,1-2.19-1.024,2.846,2.846,0,0,1,.371-4.007c10.038-8.335,9.9-26.1,9.789-40.374-.018-2.3-.035-4.47-.007-6.506l.028-2.166c.224-17.365.456-35.319,6.594-52.236,6.654-18.336,15.447-32.137,26.136-41.012a2.846,2.846,0,0,1,4.006.37,2.846,2.846,0,0,1-.371,4.007c-9.9,8.221-18.119,21.2-24.423,38.578-5.809,16.011-6.035,33.478-6.253,50.367l-.028,2.17c-.027,1.975-.01,4.117.007,6.384.114,14.658.269,34.737-11.842,44.8a2.822,2.822,0,0,1-1.816.654" transform="translate(204.716 1682.316)" fill="#3d3939"/>
    <path id="パス_96" data-name="パス 96" d="M662.442-166.245a2.845,2.845,0,0,1-2.8-2.36l-18.27-105.559a2.845,2.845,0,0,1,2.318-3.288,2.844,2.844,0,0,1,3.288,2.318l18.27,105.559a2.844,2.844,0,0,1-2.318,3.288,2.813,2.813,0,0,1-.488.042" transform="translate(32.295 1035.1)" fill="#3d3939"/>
    <path id="パス_97" data-name="パス 97" d="M374.106-96.881a2.813,2.813,0,0,1-.488-.042,2.844,2.844,0,0,1-2.318-3.288l10.051-58.073a2.846,2.846,0,0,1,3.288-2.318,2.845,2.845,0,0,1,2.318,3.288L376.906-99.241a2.846,2.846,0,0,1-2.8,2.36" transform="translate(192.615 965.736)" fill="#3d3939"/>
    <path id="パス_98" data-name="パス 98" d="M721.552-664.715a2.843,2.843,0,0,1-.922-.154,2.845,2.845,0,0,1-1.77-3.613l9.383-27.414,8.56-32.718,2.9-35.669-15.893,4.512a2.845,2.845,0,0,1-3.184-1.222,2.845,2.845,0,0,1,.276-3.4l14.078-15.924-7.338-19.676a2.845,2.845,0,0,1,1.671-3.659,2.844,2.844,0,0,1,3.66,1.671l7.935,21.275a2.845,2.845,0,0,1-.534,2.878l-8.78,9.932,10.5-2.981a2.849,2.849,0,0,1,2.582.538,2.845,2.845,0,0,1,1.03,2.429l-3.251,40a2.864,2.864,0,0,1-.083.489l-8.651,33.061c-.018.068-.038.135-.061.2l-9.417,27.513a2.846,2.846,0,0,1-2.691,1.924" transform="translate(-13.637 1347.544)" fill="#3d3939"/>
    <path id="パス_99" data-name="パス 99" d="M129.316-805.578a2.886,2.886,0,0,1-.347-.021,2.844,2.844,0,0,1-2.48-3.168,37.733,37.733,0,0,1,16.4-26.86c7.723-5.172,16.786-8.759,25.552-12.228,9.427-3.732,18.332-7.256,25.565-12.536l0,0L219.4-878.931a2.844,2.844,0,0,1,3.974.62,2.844,2.844,0,0,1-.62,3.975l-23.123,16.879c-1.1.8-1.8,1.314-2.29,1.639l.015.021c-7.82,5.708-17.482,9.532-26.826,13.231-8.487,3.36-17.263,6.833-24.48,11.666a32.052,32.052,0,0,0-13.914,22.821,2.845,2.845,0,0,1-2.82,2.5" transform="translate(337.926 1392.449)" fill="#3d3939"/>
    <path id="パス_100" data-name="パス 100" d="M297.892-692.228a2.847,2.847,0,0,1-2.75-2.125l-8.651-33.062a2.862,2.862,0,0,1-.083-.49l-3.251-40a2.846,2.846,0,0,1,1.029-2.429,2.843,2.843,0,0,1,2.583-.538l10.5,2.981-8.78-9.932a2.845,2.845,0,0,1-.534-2.878l7.935-21.275a2.845,2.845,0,0,1,3.659-1.671,2.845,2.845,0,0,1,1.671,3.659l-7.338,19.676,14.077,15.924a2.845,2.845,0,0,1,.277,3.4,2.847,2.847,0,0,1-3.184,1.222l-15.893-4.512,2.9,35.669,8.588,32.82a2.845,2.845,0,0,1-2.032,3.473,2.857,2.857,0,0,1-.722.093" transform="translate(244.919 1347.544)" fill="#3d3939"/>
    <path id="パス_102" data-name="パス 102" d="M460.58-1187.706a6.642,6.642,0,0,0-4.669-2.1,6.716,6.716,0,0,0-6.881,6.49,6.7,6.7,0,0,0,6.488,6.88c.067,0,.134,0,.2,0a6.645,6.645,0,0,0,4.582-1.825,6.635,6.635,0,0,0,2.1-4.669,6.646,6.646,0,0,0-1.819-4.783" transform="translate(146.45 1576.665)" fill="#3d3939"/>
    <path id="パス_103" data-name="パス 103" d="M606.2-1187.707a6.642,6.642,0,0,0-4.669-2.1,6.669,6.669,0,0,0-4.784,1.821,6.636,6.636,0,0,0-2.1,4.669,6.694,6.694,0,0,0,6.487,6.88c.067,0,.134,0,.2,0a6.646,6.646,0,0,0,4.582-1.825,6.634,6.634,0,0,0,2.1-4.669,6.645,6.645,0,0,0-1.819-4.783" transform="translate(60.008 1576.665)" fill="#3d3939"/>
    <path id="パス_104" data-name="パス 104" d="M531.391-1118.614h-.086a2.843,2.843,0,0,1-2.759-2.926c.022-.748.022-1.516,0-2.28a2.844,2.844,0,0,1,2.759-2.93h.087a2.842,2.842,0,0,1,2.842,2.759c.026.878.027,1.76,0,2.617a2.844,2.844,0,0,1-2.842,2.759" transform="translate(99.247 1539.234)" fill="#3d3939"/>
    <path id="パス_105" data-name="パス 105" d="M513.625-1043.758a2.842,2.842,0,0,1-2.638-1.78,2.845,2.845,0,0,1,1.572-3.7,11.3,11.3,0,0,0,4.861-3.629,23.25,23.25,0,0,0,3.88-7.6c.1-.329.408-1.487.71-2.678h-31.4c.3,1.191.611,2.353.712,2.69a23.225,23.225,0,0,0,3.878,7.591,11.3,11.3,0,0,0,4.861,3.629,2.845,2.845,0,0,1,1.572,3.7,2.842,2.842,0,0,1-3.7,1.573,16.907,16.907,0,0,1-7.183-5.36,28.92,28.92,0,0,1-4.86-9.452c-.1-.313-.53-1.922-.9-3.422-.815-3.259-1.061-4.243-.179-5.462a2.881,2.881,0,0,1,2.276-1.178H525.5a2.876,2.876,0,0,1,2.314,1.178c.882,1.219.636,2.2-.179,5.462-.374,1.5-.807,3.109-.9,3.422a28.943,28.943,0,0,1-4.859,9.452,16.911,16.911,0,0,1-7.183,5.36,2.81,2.81,0,0,1-1.064.207" transform="translate(125.54 1504.857)" fill="#3d3939"/>
    <path id="パス_106" data-name="パス 106" d="M130.2-477.28,45.967-479.62A41.366,41.366,0,0,1,5.828-517.682,41.156,41.156,0,0,1,8.034-534.76L51.863-659.5a2.845,2.845,0,0,0-1.741-3.627,2.845,2.845,0,0,0-3.627,1.741L2.666-536.646a46.824,46.824,0,0,0-2.51,19.424,47.047,47.047,0,0,0,45.653,43.29l60.381,1.677v34.937l-6.61,38.733a2.845,2.845,0,0,0,2.326,3.283,2.86,2.86,0,0,0,.482.041,2.845,2.845,0,0,0,2.8-2.366l6.65-38.971a2.818,2.818,0,0,0,.041-.478V-472.1l18.16.5h.081a2.845,2.845,0,0,0,2.842-2.766,2.845,2.845,0,0,0-2.765-2.922" transform="translate(413 1264.118)" fill="#3d3939"/>
    <path id="パス_107" data-name="パス 107" d="M356.054-400.646a7.741,7.741,0,0,0-5.389-2.678l-7-.456a7.778,7.778,0,0,0-6.118-4.227l-66.256-7.1a11.156,11.156,0,0,0,1.544-7.18,10.757,10.757,0,0,0-4.2-7.175,9.452,9.452,0,0,0-7.608-1.27c-.255.054-.263.056-10.809,3.819h-1.888a22.291,22.291,0,0,0-13.075,4.208c-3.048,2.188-5.927,4.256-7.658,8.463l-1,2.429,0-.033a2.844,2.844,0,0,0-.878-2.279,2.834,2.834,0,0,0-2.321-.758l-71.659,9.217a28.1,28.1,0,0,1-14.086-1.816,33.825,33.825,0,0,0-16.333-2.258l-4.377.482a33.719,33.719,0,0,0-8.638,2.131l-5.1,2a2.846,2.846,0,0,0-1.608,3.688,2.846,2.846,0,0,0,3.688,1.608l5.1-2a28.027,28.027,0,0,1,7.18-1.772l4.378-.482a28.12,28.12,0,0,1,13.577,1.877,33.775,33.775,0,0,0,16.945,2.185l68.195-8.772-5.543,72.8a2.844,2.844,0,0,0,2.62,3.052c.074.005.147.008.219.008a2.845,2.845,0,0,0,2.833-2.629l5.427-71.267a2.828,2.828,0,0,0,1.082.788,2.844,2.844,0,0,0,3.713-1.549l1.845-4.485c1.059-2.575,2.775-3.9,5.715-6.006a16.637,16.637,0,0,1,9.757-3.14h2.38a2.849,2.849,0,0,0,.956-.165c3.888-1.387,9.684-3.453,10.706-3.811a3.846,3.846,0,0,1,3.026.417,5.109,5.109,0,0,1,1.81,3.345,5.742,5.742,0,0,1-.924,3.634c-3.084,5.236-8.729,8.608-14.189,11.868-1.383.826-2.812,1.679-4.179,2.551a2.845,2.845,0,0,0-.869,3.928,2.843,2.843,0,0,0,2.4,1.315,2.832,2.832,0,0,0,1.527-.447c1.3-.827,2.627-1.621,4.037-2.463,4.279-2.555,8.656-5.176,12.209-8.769l69.719,7.468a2.1,2.1,0,0,1,1.879,2.217,2.1,2.1,0,0,1-2.15,1.984l-49.335-1.105h-.065a2.844,2.844,0,0,0-2.843,2.781,2.845,2.845,0,0,0,2.78,2.908l49.334,1.105.181,0a7.757,7.757,0,0,0,7.465-5.585l6.105.4a2.091,2.091,0,0,1,1.456.723,2.089,2.089,0,0,1,.507,1.545l-.132,1.673a2.1,2.1,0,0,1-2.049,1.94,2.758,2.758,0,0,0-.277.02L313.3-387.3c-3.19.389-6.438.676-9.654.854l-11.678.645c-3.8.21-7.66.272-11.466.184l-2.166-.05a152.367,152.367,0,0,0-41.409,4.749,2.845,2.845,0,0,0-2.048,3.463,2.847,2.847,0,0,0,2.754,2.138,2.851,2.851,0,0,0,.71-.09,146.628,146.628,0,0,1,39.863-4.572l2.165.05c3.954.092,7.961.028,11.911-.191l11.679-.645c3.341-.184,6.715-.483,10.029-.888l36.378-4.433a7.775,7.775,0,0,0,7.433-7.173l.132-1.673a7.74,7.74,0,0,0-1.876-5.717" transform="translate(352.804 1126.226)" fill="#3d3939"/>
    <path id="パス_108" data-name="パス 108" d="M802.928-485.93l-.428,0-107.4-1.122a2.844,2.844,0,0,1-2.782-2.413L687.88-518.41a2.844,2.844,0,0,1,2.381-3.242,2.842,2.842,0,0,1,3.242,2.381l4.07,26.554,104.986,1.1.369,0a36.416,36.416,0,0,0,28.466-13.831,36.262,36.262,0,0,0,7.3-16.791l2.585-16.612a36.112,36.112,0,0,0-2.8-20.53l-50-110.113a2.845,2.845,0,0,1,1.415-3.766,2.846,2.846,0,0,1,3.766,1.415l50,110.113a41.794,41.794,0,0,1,3.247,23.757l-2.589,16.612a41.96,41.96,0,0,1-8.449,19.431,42.151,42.151,0,0,1-32.941,16.006" transform="translate(4.682 1270.187)" fill="#3d3939"/>
    <path id="パス_109" data-name="パス 109" d="M672.623-485.668a72.519,72.519,0,0,0-40.281-8.241l-20.9,1.781-77.453-6.591a2.817,2.817,0,0,0-1.715.406l-5.51-1.546a17.076,17.076,0,0,1-9.31-6.572l-12.939-18.321a22.593,22.593,0,0,0-11-8.321l-10.989-3.874a22.674,22.674,0,0,0-7.551-1.291h-9.71a10.576,10.576,0,0,0-10.544,9.95l-10.242,8.261a18.1,18.1,0,0,0-5.841,8.446,7.206,7.206,0,0,0,1.632,7.24,7.22,7.22,0,0,0,5.225,2.238,7.269,7.269,0,0,0,1.115-.087l5.493-.858a4.052,4.052,0,0,0-1.018,3.11,2.847,2.847,0,0,0,3.157,2.493,2.845,2.845,0,0,0,2.432-2.146,9.253,9.253,0,0,1,4.892-1.329l17.012-.221a2.844,2.844,0,0,0,2.807-2.881,2.83,2.83,0,0,0-2.881-2.807l-17.638.229a4.859,4.859,0,0,1-3.487-1.4,4.84,4.84,0,0,1-1.45-3.469,4.88,4.88,0,0,1,4.874-4.874h17.242a2.844,2.844,0,0,0,2.845-2.845,2.844,2.844,0,0,0-2.845-2.845H465.262a4.88,4.88,0,0,1-4.874-4.874v-.762a4.88,4.88,0,0,1,4.874-4.874h9.71a16.98,16.98,0,0,1,5.66.968l10.989,3.873a16.932,16.932,0,0,1,8.248,6.237l12.94,18.322a22.782,22.782,0,0,0,12.421,8.769l6.137,1.721,1.8,11.716a2.845,2.845,0,0,0,2.808,2.414,2.825,2.825,0,0,0,.435-.033,2.844,2.844,0,0,0,2.381-3.242l-1.676-10.939,74.094,6.306a2.819,2.819,0,0,0,.483,0l21.138-1.8a66.852,66.852,0,0,1,37.128,7.6,2.841,2.841,0,0,0,3.844-1.176,2.843,2.843,0,0,0-1.174-3.847" transform="translate(152.835 1189.882)" fill="#3d3939"/>
    <path id="パス_110" data-name="パス 110" d="M458.548-487.7a10.625,10.625,0,0,0,.4,2.9l-4.909.767a1.53,1.53,0,0,1-1.344-.456,1.527,1.527,0,0,1-.346-1.535,12.424,12.424,0,0,1,4.009-5.8l7.891-6.365c.158.3.323.586.508.864a10.579,10.579,0,0,0-6.21,9.625" transform="translate(144.522 1166.109)" fill="#fff"/>
    <path id="パス_111" data-name="パス 111" d="M550.539-1181.005a37.434,37.434,0,0,0-12.26-19.081c-8.611-7.11-19.553-11.442-30.135-15.63-9.427-3.732-18.332-7.256-25.565-12.536l-42.771-31.223c23.886-3.891,45.443-25.688,54.591-46.274a98.584,98.584,0,0,0,1.684-74.526c-2.536-6.466-4.887-13.228-7.16-19.771-4.723-13.589-9.608-27.642-16.6-40.463a137.288,137.288,0,0,0-37.863-43.861c-15.528-11.635-30.343-16.337-45.293-14.366-4.008.528-11.469,1.512-16.126,5.271a2.843,2.843,0,0,0-.426,4,2.844,2.844,0,0,0,4,.427c3.412-2.755,10.087-3.633,13.295-4.056,13.4-1.764,26.859,2.576,41.139,13.276a131.558,131.558,0,0,1,36.279,42.036c6.768,12.407,11.573,26.232,16.221,39.606,2.292,6.591,4.661,13.411,7.238,19.982a92.766,92.766,0,0,1-1.587,70.133c-9.478,21.33-33.282,43.436-56.712,43.51-.037,0-.072,0-.108.006A113.661,113.661,0,0,1,430.1-1285.1,107.6,107.6,0,0,0,447.12-1302.3c8-10.111,10.609-23.021,12.236-35.469a2.846,2.846,0,0,0-2.452-3.19,2.847,2.847,0,0,0-3.19,2.45c-1.521,11.639-3.913,23.651-11.056,32.677-11.856,14.982-26.988,25.9-47.621,34.36a13.588,13.588,0,0,1-5.152,1.157,14.408,14.408,0,0,1-5.208-1.179c-19.158-7.388-33.732-17.634-45.867-32.241a2.843,2.843,0,0,0-4.006-.374,2.846,2.846,0,0,0-.371,4.007,110.525,110.525,0,0,0,13.867,13.984,115.174,115.174,0,0,1-2.273,21.381,60.626,60.626,0,0,1-13.474-2.444,48.441,48.441,0,0,1-14.578-7.584,43.95,43.95,0,0,1-10.686-12.723c-7.7-12.992-11.448-29.206-11.448-49.566a2.844,2.844,0,0,0-2.845-2.845,2.844,2.844,0,0,0-2.845,2.845c0,21.408,4,38.574,12.244,52.468a49.517,49.517,0,0,0,12.135,14.349,54.106,54.106,0,0,0,16.285,8.474,64.135,64.135,0,0,0,13.867,2.619c-.491,1.8-1.032,3.589-1.63,5.38q-1.094,3.272-2.214,6.572c-4.178,12.354-8.5,25.13-11.39,38.067-3.1,13.863-4.544,29.359-4.544,48.767,0,25.722,3.156,50.754,6.571,73.977,0,.011,0,.022,0,.033l1.936,16.937a2.845,2.845,0,0,0,2.823,2.522,2.867,2.867,0,0,0,.327-.019,2.845,2.845,0,0,0,2.5-3.149l-1.921-16.812c0-.072-.013-.144-.023-.217-3.391-23.044-6.529-47.87-6.529-73.272,0-18.98,1.4-34.082,4.406-47.526,2.827-12.643,7.1-25.272,11.228-37.486q1.119-3.309,2.22-6.59a107.315,107.315,0,0,0,5.391-29.793,122.155,122.155,0,0,0,28.79,15.568,19.713,19.713,0,0,0,7.256,1.561,19.115,19.115,0,0,0,7.31-1.582,137.168,137.168,0,0,0,27.374-14.74,106.742,106.742,0,0,0,5.349,28.987q1.095,3.276,2.217,6.58c4.132,12.217,8.4,24.85,11.231,37.5a188.1,188.1,0,0,1,4.064,32.361,246.657,246.657,0,0,1-101.107,3.186,2.841,2.841,0,0,0-3.293,2.31,2.845,2.845,0,0,0,2.31,3.294,254.358,254.358,0,0,0,44,3.855,252.66,252.66,0,0,0,58.3-6.846c.083,3.019.126,6.132.126,9.365,0,25.4-3.138,50.227-6.529,73.272a2.845,2.845,0,0,0,2.4,3.228,2.849,2.849,0,0,0,.417.031,2.846,2.846,0,0,0,2.811-2.431c3.423-23.259,6.589-48.335,6.589-74.1,0-19.407-1.444-34.9-4.544-48.767-2.893-12.941-7.215-25.72-11.394-38.078q-1.114-3.294-2.211-6.561-.327-.977-.63-1.952l.794.12,43.746,31.934c7.82,5.708,17.481,9.532,26.825,13.231,10.172,4.026,20.689,8.189,28.607,14.727a31.775,31.775,0,0,1,10.4,16.2,2.846,2.846,0,0,0,2.742,2.092,2.855,2.855,0,0,0,.755-.1,2.845,2.845,0,0,0,1.99-3.5" transform="translate(240.76 1760.31)" fill="#3d3939"/>
    <path id="パス_112" data-name="パス 112" d="M66.571-1547.619a.161.161,0,0,1-.043,0l-46.841-.7a2.847,2.847,0,0,1-2.8-2.889,2.846,2.846,0,0,1,2.887-2.8l46.841.7a2.84,2.84,0,0,1,2.8,2.885,2.846,2.846,0,0,1-2.843,2.8" transform="translate(402.977 1792.864)" fill="#3d3939"/>
    <path id="パス_113" data-name="パス 113" d="M434.11-1821.861a2.8,2.8,0,0,1-.92-.155,2.841,2.841,0,0,1-1.772-3.609l15.15-44.328a2.844,2.844,0,0,1,3.612-1.772,2.843,2.843,0,0,1,1.772,3.609l-15.15,44.328a2.846,2.846,0,0,1-2.691,1.926" transform="translate(156.994 1981.555)" fill="#3d3939"/>
    <path id="パス_114" data-name="パス 114" d="M286.2-1784.927a2.845,2.845,0,0,1-2.717-2.008l-13.806-44.775a2.845,2.845,0,0,1,1.88-3.556,2.844,2.844,0,0,1,3.557,1.882l13.806,44.771a2.847,2.847,0,0,1-1.88,3.56,2.868,2.868,0,0,1-.839.126" transform="translate(252.988 1959.897)" fill="#3d3939"/>
    <path id="パス_115" data-name="パス 115" d="M157.32-1694.221a2.841,2.841,0,0,1-1.7-.569L118.129-1722.9a2.845,2.845,0,0,1-.57-3.983,2.845,2.845,0,0,1,3.983-.569l37.487,28.105a2.845,2.845,0,0,1,.569,3.983,2.837,2.837,0,0,1-2.278,1.142" transform="translate(343.552 1896.158)" fill="#3d3939"/>
  </g>
</svg>
