<svg xmlns="http://www.w3.org/2000/svg" width="515.749" height="854.99" viewBox="0 0 515.749 854.99">
  <g id="nayami" transform="translate(0 1670.761)">
    <path id="パス_1" data-name="パス 1" d="M73.741-813.7H445.7S435.265-985.58,435.25-985.812c.063,1.042,47.1-6.826,51.423-8.39,20.857-7.545,29.128-25.214,29.128-46.768,0,0-32.667-232.412-32.679-232.494-.708-5.035-5.23-11.145-9.223-13.943-12.649-8.868-26.571-16.122-39.9-23.924l-70.352-29.361L332.22-1374l-5.62-1.248v-38.115c0-3.1,4.011-6.6,5.562-9.1a55.92,55.92,0,0,0,6.317-16.45c.717-3.183.184-9.343,3.733-11.052,4.546-2.19,9.236-3.843,12.927-7.353a36,36,0,0,0,9.566-15.361c3.049-9.86,1.89-20.37-4.385-28.49l9.575-23.936c2.215-9.348,5.234-18.881,6.011-28.48,1.547-19.127-7.893-34.2-18.025-49.475-10.941-16.5-24.587-33.93-41.968-44.051-37.568-21.864-86.254-18.175-118.359,11.692l-7.077,12.485-8.742,4.165c-12.35,5.879-20.307,20.247-24.994,32.333a139.529,139.529,0,0,0-9.278,55.517c.466,12.393,5.615,23.834,9.5,35.582,1.232,3.725-1.091,8.335-1.249,12.147-.511,12.311,7.8,26.183,19.018,31.392,1.087.5,5.181,1,5.542,2.246a166.653,166.653,0,0,0,15.61,36.191l-.208,47.274-9.783-8.535-29.765,32.471c-32.479,14.547-66.03,27.672-96.516,46.06-7.444,4.49-16.435,10.663-20.286,18.8-4.159,8.788-3.71,20.566-5.169,30.053l-23.728,194.4c0,14.527,2.634,27.994,14.556,37.723,17.178,14.018,40.167,7.467,60.062,4.842Z" transform="translate(-5.095 -4.628)" fill="#fff"/>
    <path id="パス_2" data-name="パス 2" d="M489.462-1501.172l9.575-23.936c2.214-9.348,5.234-18.881,6.01-28.48,1.547-19.127-7.892-34.2-18.024-49.475-10.941-16.5-24.587-33.93-41.968-44.051-37.568-21.864-86.255-18.175-118.36,11.692l-7.077,12.485-8.742,4.165c-12.35,5.879-20.307,20.247-24.995,32.338a139.5,139.5,0,0,0-9.278,55.512c.466,12.383,5.608,23.819,9.5,35.557-.145-.435,3.075-4.129,3.515-4.564,3.992-3.925,9.339-4.053,14.468-3.766-.011-.005.289-10.95.285-11.958a49.9,49.9,0,0,1,3.794-18.671c5.766-15.074,13.066-30.261,25.023-41.441,5.588-5.229,11.461-10.111,17.341-15.038,2.612-2.19,19.975,11.559,22.251,13.186,18.409,13.155,35.988,26.4,56.337,36.56,15.207,7.593,31.922,14.414,49.183,14.414l-.312,25.354Z" transform="translate(-135.023 -4.628)" fill="#606060" stroke="#606060" stroke-linecap="round" stroke-linejoin="round" stroke-width="10"/>
    <path id="パス_3" data-name="パス 3" d="M515.9-770.374c-5.458-38.811-32.671-232.422-32.681-232.494-.826-5.881-5.879-12.592-10.288-15.682-9.275-6.5-19.316-12.2-29.026-17.7-3.64-2.064-7.4-4.2-11.048-6.333a2.6,2.6,0,0,0-.308-.153l-69.85-29.154L331.639-1104.8a2.557,2.557,0,0,0-2.556-.706,2.563,2.563,0,0,0-1.809,1.939L278.171-868.6a2.57,2.57,0,0,0-.054.523v23.1a2.56,2.56,0,0,0,.788,1.848,2.571,2.571,0,0,0,1.879.708l12.028-.512L293.4-770.3l-43.584,1.955v-77.042a2.56,2.56,0,0,0-.779-1.839,2.543,2.543,0,0,0-1.864-.718l-10.406.344-50.8-256.562a2.557,2.557,0,0,0-1.82-1.965,2.555,2.555,0,0,0-2.576.732l-29.407,32.082c-7.077,3.167-14.32,6.314-21.331,9.364-25.144,10.94-51.144,22.248-74.978,36.624-7.728,4.661-17.13,11.135-21.277,19.9-3.1,6.548-3.774,14.324-4.426,21.845-.273,3.153-.532,6.13-.96,8.912,0,.027-.008.053-.011.08L5.451-782.192a2.518,2.518,0,0,0-.019.31c0,12.6,1.762,28.495,15.5,39.7,8.721,7.118,18.838,9.237,29.152,9.237,8.024,0,16.168-1.284,23.861-2.5,2.043-.322,4.006-.629,5.933-.912L68.745-542.9a2.56,2.56,0,0,0,.694,1.9,2.56,2.56,0,0,0,1.86.8H443.256a2.558,2.558,0,0,0,1.863-.8,2.559,2.559,0,0,0,.691-1.908s-9.837-162.057-9.854-162.34l-.432-7.115c3.33-.288,9.678-1.184,22.287-3.273,8.824-1.461,24.5-4.2,27.291-5.212,20.16-7.293,30.814-24.3,30.814-49.175a2.765,2.765,0,0,0-.02-.356" transform="translate(-2.653 -275.58)" fill="#d3d7dd"/>
    <path id="パス_4" data-name="パス 4" d="M360.222-418.585l19.128,65.1L347.721-348.5l-5.32-26.526a2.557,2.557,0,0,0-2.19-2.035l-44.577-5.59a11.442,11.442,0,0,1-2.589-.639L274.1-390.4a11.37,11.37,0,0,1-6.183-5.556l-5.67-11.281Z" transform="translate(-128.059 -611.369)" fill="#fff"/>
    <path id="パス_5" data-name="パス 5" d="M462.633-963.358l9.054,31.221-9.054,30.578-5.3,114.2,3.72,7.084h40.292L495.1-901.559l-9.366-31.514,9.991-30.285-16.387-9.991Z" transform="translate(-223.325 -340.467)" fill="#f6dd4f"/>
    <path id="パス_6" data-name="パス 6" d="M847.44-157.315a5.117,5.117,0,0,1-5.1-4.824l-8.578-149.386a5.117,5.117,0,0,1,4.815-5.4,5.111,5.111,0,0,1,5.4,4.815l8.578,149.386a5.116,5.116,0,0,1-4.815,5.4c-.1.006-.2.009-.3.009" transform="translate(-407.135 -661.006)" fill="#3d3939"/>
    <path id="パス_7" data-name="パス 7" d="M129.856-181.128c-.1,0-.2,0-.3-.009a5.117,5.117,0,0,1-4.813-5.4L134.823-360.88a5.112,5.112,0,0,1,5.4-4.813,5.117,5.117,0,0,1,4.813,5.4L134.959-185.95a5.117,5.117,0,0,1-5.1,4.822" transform="translate(-60.91 -637.192)" fill="#3d3939"/>
    <path id="パス_8" data-name="パス 8" d="M483.15-166.474a5.117,5.117,0,0,1-5.117-5.117v-76.433a5.117,5.117,0,0,1,5.117-5.117,5.117,5.117,0,0,1,5.117,5.117v76.433a5.117,5.117,0,0,1-5.117,5.117" transform="translate(-233.432 -692.158)" fill="#3d3939"/>
    <path id="パス_9" data-name="パス 9" d="M239.554-111.291a5.117,5.117,0,0,1-5.117-5.117v-21.437l-55.9,4.282a5.117,5.117,0,0,1-5.492-4.711,5.117,5.117,0,0,1,4.711-5.493l61.4-4.7a5.117,5.117,0,0,1,3.868,1.348,5.114,5.114,0,0,1,1.64,3.754v26.961a5.117,5.117,0,0,1-5.117,5.117" transform="translate(-84.495 -743.263)" fill="#3d3939"/>
    <path id="パス_10" data-name="パス 10" d="M691.459-111.292a5.117,5.117,0,0,1-5.117-5.117v-26.961a5.114,5.114,0,0,1,1.64-3.754,5.113,5.113,0,0,1,3.868-1.348l61.311,4.7a5.116,5.116,0,0,1,4.711,5.492,5.128,5.128,0,0,1-5.492,4.711l-55.8-4.275v21.437a5.117,5.117,0,0,1-5.117,5.117" transform="translate(-335.153 -743.262)" fill="#3d3939"/>
    <path id="パス_11" data-name="パス 11" d="M515.3-899.662l-31.921-230.4c-.006-.041-.012-.083-.018-.124a35.31,35.31,0,0,0-17.381-25.053l-11.731-6.714a5.117,5.117,0,0,0-6.982,1.9,5.118,5.118,0,0,0,1.9,6.983l11.731,6.713a25.114,25.114,0,0,1,12.355,17.764l31.91,230.334c2.6,18.747-9.626,36.377-27.827,40.137q-.539.111-1.084.207l-218,33.458L240.5-884.194l3.294-.383c.061-.007.119-.021.179-.03.1-.016.205-.03.305-.051.069-.015.135-.035.2-.052.1-.025.194-.049.289-.079.074-.024.146-.053.219-.08s.167-.06.248-.1.157-.075.235-.113.14-.068.208-.1.159-.1.237-.144c.061-.038.123-.075.182-.115.077-.053.15-.111.224-.167.057-.044.115-.085.169-.131s.133-.119.2-.18.112-.1.165-.157.112-.122.167-.184.11-.122.162-.186.092-.122.138-.184.106-.142.155-.216.075-.123.113-.185c.048-.079.1-.158.139-.24.034-.064.063-.13.095-.2.039-.083.08-.165.115-.25s.055-.148.081-.222.059-.161.084-.243.046-.174.068-.262.038-.146.053-.221c.019-.1.032-.2.046-.3.009-.066.021-.131.027-.2.01-.107.013-.213.016-.321,0-.058.009-.114.009-.172v-80.4l39.756-1.577-.038,8.686h0l-.211,47.773a5.085,5.085,0,0,0-.012,2.614l-.037,8.314-27.649,1.614a5.116,5.116,0,0,0-4.81,5.406,5.125,5.125,0,0,0,5.406,4.81l32.446-1.894a5.117,5.117,0,0,0,4.819-5.086l.049-11.16L367.111-940.6a5.116,5.116,0,0,0,3.073-4.5,5.115,5.115,0,0,0-2.73-4.717l-28.574-15.04a27.971,27.971,0,0,0-12.979-3.207H298.29l.039-8.871a5.115,5.115,0,0,0-1.563-3.7,5.129,5.129,0,0,0-3.757-1.431l-9.905.392-.737-12.339L330.039-1223.6,353.4-1199.3a19.03,19.03,0,0,0,6.189,4.293l66.933,28.941a5.118,5.118,0,0,0,6.728-2.666,5.117,5.117,0,0,0-2.666-6.728L363.649-1204.4a8.9,8.9,0,0,1-2.874-1.99l-30.085-31.289a5.11,5.11,0,0,0-3.967-1.556v-31.254a5.149,5.149,0,0,0-.078-.86,118.733,118.733,0,0,0,14.1-32.62,64.805,64.805,0,0,0,6.616-4.078,52.121,52.121,0,0,0,14.667-16.139,37.549,37.549,0,0,0,4.109-24.469c-.667-4.319-2.4-10.387-6.9-14.767a13.685,13.685,0,0,0-11.051-3.95q0-.9-.007-1.781a5.143,5.143,0,0,0-5.16-5.076,5.12,5.12,0,0,0-5.073,5.163c.021,2.456-.007,5.03-.082,7.747a5.092,5.092,0,0,0-.054,1.75c-.068,1.965-.16,4.006-.276,6.145a5.12,5.12,0,0,0,4.83,5.388c.1.005.19.005.284.005a5.118,5.118,0,0,0,5.1-4.835c.076-1.4.141-2.753.2-4.078,2.5-.732,3.534.256,4.149.854,1.926,1.878,3.32,5.071,3.925,9a27.322,27.322,0,0,1-2.853,17.786,41.717,41.717,0,0,1-9.14,10.873c.119-.655.245-1.3.359-1.96a5.121,5.121,0,0,0-4.173-5.915,5.119,5.119,0,0,0-5.912,4.175c-3.383,19.613-9.334,35.368-18.193,48.159a124.318,124.318,0,0,1-24.208,25.968c-7.9,6.381-15.38,10.827-22.858,13.606a36.916,36.916,0,0,1-12.814,2.251,36.8,36.8,0,0,1-12.814-2.257c-7.478-2.773-14.954-7.22-22.858-13.6a124.891,124.891,0,0,1-24.374-25.968c-8.689-12.546-14.548-28.015-17.912-47.3a5.119,5.119,0,0,0-5.92-4.16,5.117,5.117,0,0,0-4.161,5.92c.008.046.016.087.024.128a41.62,41.62,0,0,1-9.03-10.781,27.31,27.31,0,0,1-2.853-17.781c.605-3.925,2-7.123,3.925-9,.621-.6,1.665-1.607,4.221-.834.063,1.581.14,3.213.233,4.912a5.114,5.114,0,0,0,5.1,4.835c.094,0,.189,0,.284-.005a5.12,5.12,0,0,0,4.83-5.388c-.236-4.324-.369-8.2-.408-11.871a5.113,5.113,0,0,0-5.115-5.061h-.054a5.1,5.1,0,0,0-4.188,2.257,13.673,13.673,0,0,0-12.044,3.822c-4.5,4.375-6.235,10.443-6.9,14.767a37.553,37.553,0,0,0,4.109,24.469A52.05,52.05,0,0,0,165-1308.908a62.753,62.753,0,0,0,6.366,3.945c3.782,14.266,9.2,26.4,16.411,36.816a135.15,135.15,0,0,0,26.36,28.107c8.779,7.082,17.194,12.065,25.725,15.233a47.054,47.054,0,0,0,16.322,2.891h.1a47.05,47.05,0,0,0,16.321-2.891c8.532-3.167,16.946-8.151,25.725-15.233a136.453,136.453,0,0,0,18.158-17.668v27.012c-.086.061-.176.118-.258.184l-57.785,47.362a3.723,3.723,0,0,1-4.672.056l-57.8-45.079v-16.461a5.118,5.118,0,0,0-5.117-5.117,5.118,5.118,0,0,0-5.117,5.117v6.81a5.122,5.122,0,0,0-4.035-1.4,5.1,5.1,0,0,0-4.168,1.545L147.457-1206.4a8.837,8.837,0,0,1-2.874,2L77.65-1175.46a5.078,5.078,0,0,0-.583.3L43.9-1155.448a35.289,35.289,0,0,0-16.989,25.509l-3.691,26.078a5.117,5.117,0,0,0,4.349,5.784,5.174,5.174,0,0,0,.724.051,5.117,5.117,0,0,0,5.06-4.4l3.691-26.078a25.1,25.1,0,0,1,12.086-18.146L82.013-1166.2l66.632-28.811a19.04,19.04,0,0,0,6.189-4.293l24.063-25.026,45.231,233.235a5.119,5.119,0,0,0,5.018,4.144,5.181,5.181,0,0,0,.98-.094,5.117,5.117,0,0,0,4.049-6l-27.308-140.815L236.9-1151.3l6.561,23.079-8.09,30.9a5.114,5.114,0,0,0-.158.991l-3.94,65.959a5.117,5.117,0,0,0,4.8,5.413c.1.006.207.009.31.009a5.117,5.117,0,0,0,5.1-4.812l3.911-65.456,8.316-31.761a5.114,5.114,0,0,0-.028-2.7l-7.655-26.929,1.963-1.14a5.117,5.117,0,0,0,1.855-6.995,5.118,5.118,0,0,0-6.995-1.855l-38.054,22.1-14.582-75.194,57.26,44.659a13.943,13.943,0,0,0,8.6,2.976,13.945,13.945,0,0,0,8.857-3.187l53.761-44.06-15.3,73.672-35.461-21.688a5.117,5.117,0,0,0-7.035,1.7,5.117,5.117,0,0,0,1.7,7.035l2.9,1.773-7.714,27.134a5.119,5.119,0,0,0-.028,2.7l8.316,31.761,6.807,113.943-29.8,1.182-74.055.592-24.04-21.521a12.452,12.452,0,0,0-15.11-1.139,12.443,12.443,0,0,0-3.093,2.885l-5.2-5.7.494-28.75a5.118,5.118,0,0,0-5.028-5.2,5.109,5.109,0,0,0-5.2,5.028l-.393,22.851a14.383,14.383,0,0,0-10.352,2.619,14.428,14.428,0,0,0-5.893,10.3,14.4,14.4,0,0,0,.366,4.866,12.618,12.618,0,0,0-1.424.794,12.381,12.381,0,0,0-5.515,8.862,12.4,12.4,0,0,0,.336,4.75l-9.327.074a5.117,5.117,0,0,0-5.076,5.158,5.117,5.117,0,0,0,5.116,5.076h.041l158.36-1.266v75.6L50.855-872.471c-.057.007-.114.014-.17.023q-.58.087-1.157.156a34.629,34.629,0,0,1-28.681-9.952A35.71,35.71,0,0,1,10.471-911.78l18.9-165.585a5.116,5.116,0,0,0-4.5-5.664,5.125,5.125,0,0,0-5.664,4.5L.3-912.94a45.886,45.886,0,0,0,13.329,37.956,44.851,44.851,0,0,0,31.713,13.178,45.379,45.379,0,0,0,5.406-.325q.682-.083,1.366-.184l73.558-8.544c.057.149.115.3.185.442l4.771,9.724a23.316,23.316,0,0,0,13.86,11.915L159.631-844a23.162,23.162,0,0,0,3.437.8l44.71,6.908,4.859,24.726a5.118,5.118,0,0,0,5.016,4.13,5.186,5.186,0,0,0,.847-.07l20.247-3.378a5.117,5.117,0,0,0,4.205-5.889,5.113,5.113,0,0,0-5.889-4.205l-15.343,2.559-4.592-23.367v0l-7.4-37.653,20.581-3.1,19.412,65.281c.046.155.1.3.16.452.02.051.043.1.064.148.042.1.085.189.133.281.029.056.058.111.089.165.046.082.095.163.145.242.034.054.068.108.1.159.056.082.116.161.177.239.034.043.065.088.1.13.092.111.189.217.29.319.044.045.091.085.136.129.064.061.129.121.2.178.052.044.106.086.16.129s.131.1.2.148.113.079.171.116.145.09.219.133c.056.032.112.067.169.1.1.051.193.1.292.141.076.035.154.067.232.1s.186.073.28.1c.068.022.136.04.2.059s.151.042.228.06.15.033.226.047.144.025.217.035.158.022.238.029.142.01.213.013.163.01.245.01h.011q.2,0,.4-.016c.059,0,.119-.013.179-.021s.134-.013.2-.023l222.464-34.144.113-.018q.72-.127,1.432-.274c23.461-4.846,39.226-27.5,35.895-51.563" transform="translate(0 -144.71)" fill="#3d3939"/>
    <path id="パス_12" data-name="パス 12" d="M582.718-560.454h27.656a17.69,17.69,0,0,1,8.211,2.029l19.138,10.073-55.165,23.993Z" transform="translate(-284.473 -542.091)" fill="#fff"/>
    <path id="パス_13" data-name="パス 13" d="M523.776-915.439l6.551-23.046L556.955-922.2l-19.87,95.688a.84.84,0,0,1-1.661-.121l-3.4-56.919a5.088,5.088,0,0,0-.158-.989Z" transform="translate(-255.769 -357.492)" fill="#fff"/>
    <path id="パス_14" data-name="パス 14" d="M195.152-606.807l-1.541-1.668a2.141,2.141,0,0,1-.56-1.738,2.145,2.145,0,0,1,.965-1.551,2.159,2.159,0,0,1,2.692.251l4.845,4.654Z" transform="translate(-94.262 -516.861)" fill="#fff"/>
    <path id="パス_15" data-name="パス 15" d="M222.5-622.884,210.094-634.8a12.57,12.57,0,0,0-1.65-1.337c-.086-.109-.174-.219-.272-.322l-1.114-1.191a4.134,4.134,0,0,1-1.109-3.261,4.133,4.133,0,0,1,1.711-2.99,4.185,4.185,0,0,1,5.549.567l18.608,20.376Z" transform="translate(-100.559 -500.953)" fill="#fff"/>
    <path id="パス_16" data-name="パス 16" d="M273.855-616.41l-10.417-10.921a2.175,2.175,0,0,1-.6-1.774,2.175,2.175,0,0,1,.982-1.592,2.209,2.209,0,0,1,2.679.2l15.66,14.019Z" transform="translate(-128.344 -507.615)" fill="#fff"/>
    <path id="パス_17" data-name="パス 17" d="M296.448-379.663a12.933,12.933,0,0,1-1.919-.448l-15.141-4.773a13.036,13.036,0,0,1-7.749-6.663L269.945-395l61.472-9.263,6.081,30.943Z" transform="translate(-131.819 -618.362)" fill="#fff"/>
    <path id="パス_18" data-name="パス 18" d="M683.726-855.113a5.09,5.09,0,0,0,2.031.423,5.118,5.118,0,0,0,4.7-3.084L728.9-946.522a5.114,5.114,0,0,0,0-4.057,5.116,5.116,0,0,0-2.95-2.785l-20.588-7.494,10.815-7.326a5.116,5.116,0,0,0,1.367-7.105,5.116,5.116,0,0,0-7.106-1.367l-19.11,12.943a5.117,5.117,0,0,0-2.209,4.865,5.119,5.119,0,0,0,3.328,4.179l24.9,9.063-36.283,83.764a5.117,5.117,0,0,0,2.662,6.729" transform="translate(-332.37 -338.422)" fill="#3d3939"/>
    <path id="パス_19" data-name="パス 19" d="M218.992-955.126a5.117,5.117,0,0,0,0,4.057l38.441,88.748a5.118,5.118,0,0,0,4.7,3.084,5.1,5.1,0,0,0,2.031-.423,5.116,5.116,0,0,0,2.662-6.729l-36.282-83.764,24.9-9.063a5.116,5.116,0,0,0,3.328-4.179,5.116,5.116,0,0,0-2.208-4.865L237.453-981.2a5.118,5.118,0,0,0-7.106,1.367,5.117,5.117,0,0,0,1.367,7.106l10.816,7.325-20.588,7.495a5.114,5.114,0,0,0-2.95,2.785" transform="translate(-106.734 -336.202)" fill="#3d3939"/>
    <path id="パス_20" data-name="パス 20" d="M789.451-638.415l-17.489,7.607v-42.143a5.117,5.117,0,0,0-5.117-5.117,5.117,5.117,0,0,0-5.117,5.117v46.593l-19.022,8.273a5.117,5.117,0,0,0-2.652,6.733,5.119,5.119,0,0,0,4.695,3.077,5.089,5.089,0,0,0,2.038-.426l22.032-9.582.044-.019,24.67-10.729a5.117,5.117,0,0,0,2.651-6.733,5.116,5.116,0,0,0-6.733-2.652" transform="translate(-361.174 -484.658)" fill="#3d3939"/>
    <path id="パス_21" data-name="パス 21" d="M275.806-1471.4a5.12,5.12,0,0,1-4.952-3.843,111.011,111.011,0,0,1-2.726-38.514c1.105-9.86,8.13-59.76,37.972-73.933a5.115,5.115,0,0,1,6.817,2.425,5.115,5.115,0,0,1-2.426,6.816c-19.345,9.19-29.432,41.206-32.193,65.833a100.362,100.362,0,0,0,2.466,34.82,5.118,5.118,0,0,1-3.68,6.232,5.254,5.254,0,0,1-1.279.164" transform="translate(-130.633 -40.229)" fill="#3d3939"/>
    <path id="パス_22" data-name="パス 22" d="M539.387-1523.4a5.149,5.149,0,0,1-1.483-.22,5.114,5.114,0,0,1-3.416-6.375l.241-.8c.8-2.641,1.623-5.373,2.61-8.438,1.926-5.982,7.639-26.674.28-41.743-12.258-25.1-27.5-45.176-46.6-61.376-24.288-20.6-71.755-24.208-101.58-7.721-6.589,3.643-15.688,11.467-19.573,18.784a5.116,5.116,0,0,1-6.918,2.124,5.116,5.116,0,0,1-2.121-6.918c5.089-9.589,15.833-18.615,23.661-22.944,15.519-8.581,36.567-12.69,57.75-11.277,22.145,1.474,41.82,8.632,55.4,20.15,20.2,17.131,36.286,38.294,49.178,64.692,8.791,18,3.114,40.52.266,49.367-.959,2.978-1.771,5.664-2.556,8.264l-.241.8a5.116,5.116,0,0,1-4.9,3.633" transform="translate(-175.905 0)" fill="#3d3939"/>
    <path id="パス_23" data-name="パス 23" d="M551.365-1456.077c-1.365,0-2.756-.031-4.172-.133a110.141,110.141,0,0,1-21.772-3.858c-22.339-6.294-42.654-19.122-55.991-28.229-4.455-3.04-8.717-6.371-12.838-9.589-3.97-3.106-8.075-6.314-12.242-9.164-3.566-2.441-7.239-4.83-10.917-7.1a32,32,0,0,0-4.852-2.589,5.114,5.114,0,0,1-2.89-6.632,5.117,5.117,0,0,1,6.634-2.891,40.942,40.942,0,0,1,6.481,3.4c3.816,2.354,7.625,4.83,11.324,7.363,4.434,3.034,8.668,6.34,12.763,9.543,3.994,3.121,8.123,6.345,12.306,9.2,12.743,8.7,32.1,20.948,52.995,26.827a100.073,100.073,0,0,0,19.746,3.51c1.795.128,3.654.107,5.625.087.771-.01,1.542-.021,2.311-.021a5.118,5.118,0,0,1,5.117,5.117,5.118,5.118,0,0,1-5.117,5.117c-.729,0-1.46.01-2.191.015-.764.01-1.538.021-2.32.021" transform="translate(-207.699 -70.297)" fill="#3d3939"/>
    <path id="パス_24" data-name="パス 24" d="M486.336-1285.61a5.114,5.114,0,0,0,5.117,5.117,5.114,5.114,0,0,0,5.117-5.117,58.7,58.7,0,0,0-.529-7.8,5.119,5.119,0,0,0-5.753-4.39,5.117,5.117,0,0,0-4.389,5.751,48.586,48.586,0,0,1,.438,6.442" transform="translate(-237.25 -182.008)" fill="#3d3939"/>
    <path id="パス_25" data-name="パス 25" d="M422.951-1416.693a5.118,5.118,0,0,0-7.211-.609c-4.133,3.49-16.231,3.561-20.2,1.5a5.119,5.119,0,0,0-6.9,2.185,5.121,5.121,0,0,0,2.184,6.9c3,1.556,7.891,2.471,13.092,2.471,6.758,0,14.046-1.545,18.42-5.24a5.116,5.116,0,0,0,.608-7.21" transform="translate(-189.501 -123.088)" fill="#3d3939"/>
    <path id="パス_26" data-name="パス 26" d="M420.445-1378.29a8.614,8.614,0,0,0-8.605,8.607,8.613,8.613,0,0,0,8.605,8.6,8.613,8.613,0,0,0,8.605-8.6,8.614,8.614,0,0,0-8.605-8.607" transform="translate(-201.109 -142.727)" fill="#3d3939"/>
    <path id="パス_27" data-name="パス 27" d="M572.565-1378.42a8.614,8.614,0,0,0-8.606,8.606,8.617,8.617,0,0,0,8.606,8.606,8.617,8.617,0,0,0,8.605-8.606,8.614,8.614,0,0,0-8.605-8.606" transform="translate(-275.391 -142.664)" fill="#3d3939"/>
    <path id="パス_28" data-name="パス 28" d="M501.641-1222.27a41.769,41.769,0,0,0-11.923-2.369c-5.063-.251-10.2-.287-15.271-.1-4.373.159-10.982.394-16.051,2.609a5.115,5.115,0,0,0-2.644,6.734,5.123,5.123,0,0,0,6.736,2.646c3.289-1.438,8.948-1.643,12.33-1.765,4.777-.169,9.617-.138,14.385.1a31.515,31.515,0,0,1,9.04,1.8,5.189,5.189,0,0,0,1.7.292,5.123,5.123,0,0,0,4.827-3.423,5.115,5.115,0,0,0-3.128-6.524" transform="translate(-222.343 -217.651)" fill="#3d3939"/>
    <path id="パス_29" data-name="パス 29" d="M329.091-1450a5.247,5.247,0,0,1-1.547-.235,5.17,5.17,0,0,1-3.384-6.478c7.156-22.826,18.825-41.63,34.682-55.886a5.164,5.164,0,0,1,7.3.389,5.167,5.167,0,0,1-.388,7.3c-14.46,13-25.136,30.256-31.731,51.291a5.165,5.165,0,0,1-4.928,3.623" transform="translate(-158.177 -76.497)" fill="#3d3939"/>
    <path id="パス_30" data-name="パス 30" d="M99.46-1398a7.743,7.743,0,0,0-4.791,3.776,7.667,7.667,0,0,0-.707,6.094,7.681,7.681,0,0,0,3.8,4.784,7.7,7.7,0,0,0,6.07.716,7.668,7.668,0,0,0,4.81-3.812,7.743,7.743,0,0,0,.689-6.063,7.713,7.713,0,0,0-3.785-4.815,7.7,7.7,0,0,0-6.088-.68" transform="translate(-45.722 -132.939)" fill="#3d3939"/>
    <path id="パス_31" data-name="パス 31" d="M59.072-1569.248q-9.825-4.283-24.261-.179a50.768,50.768,0,0,0-19.5,10.351,42.572,42.572,0,0,0-7.7,8.571,7.828,7.828,0,0,0,2.624,11.088,7.842,7.842,0,0,0,10.4-2.343,38.128,38.128,0,0,1,5.329-6.176,30.725,30.725,0,0,1,12.707-7.378q6.811-1.942,11.387.077a11.025,11.025,0,0,1,6.157,7.573,17.232,17.232,0,0,1-.291,10.367,30.243,30.243,0,0,1-6.689,10.669,26.789,26.789,0,0,0-6.421,12.035,27.685,27.685,0,0,0,.642,13.78l.295,1.039a6.315,6.315,0,0,0,7.8,4.344l2.37-.675a6.313,6.313,0,0,0,4.343-7.8,15.08,15.08,0,0,1,.083-8.709,24.772,24.772,0,0,1,5.18-8.8,39.58,39.58,0,0,0,8.914-15.5,29.272,29.272,0,0,0-.147-16.123q-3.392-11.92-13.216-16.21" transform="translate(-3.081 -48.411)" fill="#3d3939"/>
  </g>
</svg>
