<svg xmlns="http://www.w3.org/2000/svg" width="1055.177" height="788.305" viewBox="0 0 1055.177 788.305">
  <g id="nayami2" transform="translate(0 1666.648)">
    <path id="パス_32" data-name="パス 32" d="M154.128-786.879H427.3a2.977,2.977,0,0,0,2.93-3.5c-2.559-14.456-5.7-28.932-7.617-43.487a3.822,3.822,0,0,1,.237-2.468,3.9,3.9,0,0,1,2.369-1.419c24.057-7.324,54.393-13.805,63.173-40.944,2.522-7.9,2.861-16.312,3.066-24.6,1.841-74.282-6.208-147.211-22.177-219.591a3.022,3.022,0,0,0-.283-.767l-9.8-18.373c-4.5-8.438-27.842-14.545-36.487-18.234-13.61-5.808-24.855-12.775-36.7-21.442-13.753-10.062-27.859-19.839-41.694-29.862a2.956,2.956,0,0,0-1.054-.484L334.2-1214.2a3.29,3.29,0,0,1-2.333-2.669l-1.461-5.09c-.613-2.135-.332-4.95,2.559-4.95h16.321a3.011,3.011,0,0,0,.862-.127c18.956-5.7,33.055-10.911,43.907-28.808,14.608-24.09,22.494-55.612,15.347-83.541-9.626-37.127-22.824-76.542-45.888-107.633-11.028-14.865-25.194-27.773-41.681-36.324-17.666-9.16-32.485-11.334-50.953-5.776a3.146,3.146,0,0,0-.9.444l-9.96,7.213a2.971,2.971,0,0,1-1.746.567h-9.252c-13.018,0-22.584,11.008-30.577,19.748a244.738,244.738,0,0,0-33.958,47.568c-19.289,35.218-32.284,77.492-29.095,117.753a3.01,3.01,0,0,0,.094.544l3.009,11.33a2.96,2.96,0,0,0,.684,1.248L178.1-1262.1c6.286,6.845,8.548,18.7,15.884,26.167a53.14,53.14,0,0,0,24.585,14.069,2.982,2.982,0,0,1,2.228,3.019c-.147,3.05-.393,8.167-.512,10.661a2.976,2.976,0,0,1-1.268,2.293c-26.11,18.288-50.689,36.245-80.769,47.841-8.677,3.345-17.758,6.441-24.657,12.677-8.917,8.062-12.905,20.283-14.5,32.2-1.794,13.361-2.352,27.09-3.372,40.536-2.361,31.123.131,64.213,3.225,95.219,2.448,24.539,6.757,49,14.407,72.488,2.845,8.735,12.438,23.457,7.806,30.361-2.494,3.717-8.889,6.925-13.369,9.728-3.289,2.059.594,8.733,1.492,11.324,1.174,3.386-3.885,3.893-3.176,7.491.4,2.017,1.953,4.062,2.87,5.913,1.392,2.81-2.687,4.706-2.025,8.045.888,4.48,2.6,11.43,5.423,15.137,2.243,2.95,6.8,4.473,9.932,6.359,3.073,1.852,6.456,4.311,10.205,2.905,3.457-1.3,4.569-9.475,8.506-7.619l10.747,5.066a2.977,2.977,0,0,1,1.681,3.089l-2.268,16.877a2.977,2.977,0,0,0,2.95,3.374" transform="translate(-49.984 -91.464)" fill="#fff"/>
    <path id="パス_33" data-name="パス 33" d="M397.087-904.094l9.064,2.151a2.958,2.958,0,0,1,1.054.484c13.835,10.024,27.942,19.8,41.694,29.862,11.846,8.668,23.09,15.633,36.7,21.442,8.645,3.69,31.985,9.8,36.487,18.234l9.8,18.373a2.991,2.991,0,0,1,.283.767c15.969,72.381,24.019,145.309,22.177,219.591-.206,8.291-.544,16.7-3.066,24.6-8.78,27.139-39.116,33.62-63.173,40.944a3.9,3.9,0,0,0-2.369,1.419,3.822,3.822,0,0,0-.236,2.468c1.913,14.555,5.057,29.031,7.617,43.487a2.978,2.978,0,0,1-2.931,3.5H217.015a2.977,2.977,0,0,1-2.95-3.374l2.268-16.877,1.688-20.523,34.992,14.228,9.229,1.153,37.3-8.077,59.987-2.305-12.5-58.833,17.881-5.768c7.568-11.938,15.049-23.345,20.648-36.371,12.359-28.752,19.859-58.61,25.111-89.371,9.858-57.74,11.139-115.043-4.157-171.89a17.2,17.2,0,0,1-1.034-3.842Z" transform="translate(-112.871 -401.575)" fill="#f6dd4f"/>
    <path id="パス_34" data-name="パス 34" d="M113.52-594.881c-.964-2.663-1.864-5.318-2.7-7.944-6.612-20.683-9.722-42.938-11.872-64.483-3.093-31-5.586-64.1-3.224-95.218,1.02-13.446,1.578-27.176,3.372-40.536,1.6-11.914,5.588-24.135,14.5-32.2,6.9-6.236,15.98-9.332,24.657-12.677,30.08-11.6,54.658-29.553,80.769-47.841l19.17-8.317-21.054,21.533-1.731,5.191,1.155,5.768,6.057,12.4c-4.526,17.347-8.271,35.119-9.171,53.069-.564,11.242-1.048,22.494-1.6,33.739l63.259,27.11q-4.5,30.622-9,61.244c-3.9,26.517-10.373,52.273-17.534,78.053l16.15,26.245,17.016,21.63-60.276,8.941-9.617,10.382c-8.558,4.734-15.792,9.927-25.892,10.147-38.886.848-60.547-33.392-72.437-66.241" transform="translate(-49.984 -401.575)" fill="#f6dd4f"/>
    <path id="パス_35" data-name="パス 35" d="M207.856-25.081a4.708,4.708,0,0,1-.8-.069,4.726,4.726,0,0,1-3.864-5.454l2.222-13.024a4.724,4.724,0,0,1,5.454-3.864,4.727,4.727,0,0,1,3.864,5.454l-2.222,13.025a4.728,4.728,0,0,1-4.654,3.933" transform="translate(-107.116 -853.262)" fill="#3d3939"/>
    <path id="パス_36" data-name="パス 36" d="M639.021-594.743a4.555,4.555,0,0,1-4.411-3.012c-.572-1.97.288-4.042,1.131-5.912,18.373-40.782,36.139-83.227,41.3-128.135.939-8.181,1.047-16.672,1.72-24.952l-16.519,4.689a4.728,4.728,0,0,1-5.29-2.03,4.725,4.725,0,0,1,.459-5.648l15.809-17.883-8.237-22.088a4.726,4.726,0,0,1,2.777-6.08,4.726,4.726,0,0,1,6.08,2.777l9.229,24.745a4.726,4.726,0,0,1-.887,4.782l-7.008,7.927,7.56-2.146a4.731,4.731,0,0,1,4.291.895,4.727,4.727,0,0,1,1.711,4.036c-1.709,21.029-2.406,42.063-7.7,62.568-9.057,35.048-21.24,69.355-37.459,101.718a8.67,8.67,0,0,1-1.947,2.846,3.978,3.978,0,0,1-2.6.9" transform="translate(-334.56 -453.255)" fill="#3d3939"/>
    <path id="パス_37" data-name="パス 37" d="M259.9-673.452a4.729,4.729,0,0,1-4.57-3.532c-4.726-18.062-9.863-35.124-11.382-53.819l-2.6-31.977a4.727,4.727,0,0,1,1.711-4.036,4.731,4.731,0,0,1,4.291-.895l7.56,2.146L247.9-773.49a4.727,4.727,0,0,1-.887-4.782l9.229-24.745a4.726,4.726,0,0,1,6.08-2.777,4.725,4.725,0,0,1,2.777,6.08l-8.237,22.088,15.81,17.883a4.726,4.726,0,0,1,.459,5.648,4.725,4.725,0,0,1-5.291,2.03l-16.518-4.689c1.646.468,1.736,23.414,1.933,26.039,1.321,17.63,6.773,34.343,11.22,51.34a4.728,4.728,0,0,1-3.377,5.769,4.755,4.755,0,0,1-1.2.155" transform="translate(-127.263 -453.255)" fill="#3d3939"/>
    <path id="パス_38" data-name="パス 38" d="M186.077-233.273a43.565,43.565,0,0,1-4.972-.288c-21.018-2.414-38.887-14.177-51.674-34.019-13.362-20.735-22.092-46.524-27.474-81.157a4.727,4.727,0,0,1,3.945-5.4,4.732,4.732,0,0,1,5.4,3.945c5.171,33.281,13.458,57.9,26.079,77.488,11.2,17.381,26.695,27.668,44.806,29.748,11.655,1.337,22.215-3.224,32.282-13.948a4.727,4.727,0,0,1,6.681-.211,4.726,4.726,0,0,1,.211,6.681c-10.7,11.4-22.552,17.157-35.281,17.157" transform="translate(-53.737 -691.564)" fill="#3d3939"/>
    <path id="パス_39" data-name="パス 39" d="M94.1-659.983a4.727,4.727,0,0,1-4.7-4.264,613.217,613.217,0,0,1,2.01-134A45.3,45.3,0,0,1,111.1-830.5c9.109-6.1,19.722-10.3,29.987-14.364,10.878-4.305,21.152-8.372,29.42-14.407l.012.016c.289-.236.588-.454.877-.666l28.649-20.914a4.729,4.729,0,0,1,6.6,1.031,4.727,4.727,0,0,1-1.031,6.6l-17.643,12.879-11.887,8.678-.009.006c-9.24,6.745-20.564,11.227-31.514,15.561-9.8,3.88-19.938,7.891-28.206,13.429A35.858,35.858,0,0,0,100.8-797.106a603.715,603.715,0,0,0-1.986,131.933,4.727,4.727,0,0,1-4.24,5.168c-.158.015-.314.023-.469.023" transform="translate(-45.695 -413.364)" fill="#3d3939"/>
    <path id="パス_40" data-name="パス 40" d="M485.7-892.959a4.727,4.727,0,0,0-5.664-3.55,4.727,4.727,0,0,0-3.55,5.664c12.172,53.053,17.762,112.253,17.594,186.307-.062,27.223-2.048,48.9-26.382,59.469L312.653-593.344,308.5-611.733a4.714,4.714,0,0,0-.054-1.778L297.972-659.66a4.707,4.707,0,0,0-.636-1.507l-1.8-7.986,134.283-44.773A4.726,4.726,0,0,0,432.8-719.9a4.727,4.727,0,0,0-5.979-2.989l-3.426,1.142-3.236-101.978a4.726,4.726,0,0,0-4.875-4.574,4.727,4.727,0,0,0-4.574,4.874l3.326,104.8-93.475,31.167A193.632,193.632,0,0,0,334.258-712.7c11.577-26.449,20.043-57.5,25.163-92.3,3.988-27.1,7.679-56.33,7.679-86.391,0-5.15-.1-10.143-.292-15.009a4.849,4.849,0,0,0-.02-.49,266.119,266.119,0,0,0-6-48.079,184.6,184.6,0,0,0-9.7-30.705c-.282-.693-1.85-5.306-3.11-9.012-.506-1.489-1.027-3.02-1.528-4.489l48.357,35.3c9.241,6.745,20.564,11.227,31.514,15.561,11.728,4.642,23.854,9.443,32.892,16.9a35.548,35.548,0,0,1,11.627,18.126A4.728,4.728,0,0,0,475.4-909.8a4.747,4.747,0,0,0,1.255-.17,4.727,4.727,0,0,0,3.305-5.81,44.951,44.951,0,0,0-14.723-22.911c-10.188-8.413-23.021-13.492-35.432-18.4-10.878-4.306-21.153-8.373-29.42-14.407l-.017.023c-1.856-1.39-10.288-7.545-51.516-37.642a4.737,4.737,0,0,0-2.158-.867l-4.388-.589a42.781,42.781,0,0,1-1.439-5.037c-.784-3.581-1.378-11.133-1.612-20.373a118.433,118.433,0,0,0,19.5-19.5c8.494-10.734,11.556-23.571,13.276-33.559a4.727,4.727,0,0,0-3.856-5.459,4.731,4.731,0,0,0-5.46,3.857c-2.271,13.192-5.778,22.229-11.372,29.3a114.319,114.319,0,0,1-29.939,26.382,11.173,11.173,0,0,0-7.044-1.891,4.713,4.713,0,0,0-.945.165l-54.88,15.45a16.408,16.408,0,0,0-7.264,4.307l-29.093,29.716a15.522,15.522,0,0,0-3.192,17.006l4.451,10.422c-4.119,18.636-8.394,45.919-8.394,68.41a4.727,4.727,0,0,0,4.727,4.727,4.726,4.726,0,0,0,4.727-4.727c0-14.528,2.082-34.191,5.5-53.053l7.8,18.252a20.581,20.581,0,0,1,1.406,11.3l-2.225,14.148a20.544,20.544,0,0,1-2.257,6.65l-9.8,18-5.734-2.449a4.726,4.726,0,0,0-3.919.094,4.728,4.728,0,0,0-2.5,3.02L181.016-757.9a4.727,4.727,0,0,0,3.331,5.8,4.728,4.728,0,0,0,5.8-3.331l30.327-112.275,56.66,24.2c-2.032,11.9-3.82,23.992-5.555,35.726-3.658,24.744-7.44,50.33-13.628,74.794-6.773,26.779-15.821,49.223-27.662,68.615a4.727,4.727,0,0,0,1.572,6.5,4.7,4.7,0,0,0,2.458.692,4.724,4.724,0,0,0,4.039-2.264,225.4,225.4,0,0,0,17.936-36.766c2.611,4.525,5.434,9.046,8.668,14.088,3.368,5.249,7.6,10.656,12.086,16.38q1.205,1.54,2.441,3.122a4.716,4.716,0,0,0,1.134,1.042l-34.39,4.852a4.727,4.727,0,0,0-4.02,5.341,4.726,4.726,0,0,0,5.341,4.02l41.875-5.909,8.213,36.367L246-614.6a43.953,43.953,0,0,0-5.588.612l-29.232,5.116a34.481,34.481,0,0,1-5.139.505,34.525,34.525,0,0,1-16.219-3.657,4.74,4.74,0,0,0-.558-.237l-38.925-13.677a9.1,9.1,0,0,0-7.74.065l-4.9,2.331a9.1,9.1,0,0,0-5.029,6.393,9.1,9.1,0,0,0,2.033,7.874l3.01,3.485a1.84,1.84,0,0,1-.141,2.559,1.848,1.848,0,0,1-2.123.276L123.535-609.3a.4.4,0,0,1-.195-.233l-4.536-14.018a.4.4,0,0,1,.154-.458l4.773-3.323.066-.045,14.824-10.32a4.727,4.727,0,0,0,1.178-6.58,4.727,4.727,0,0,0-6.58-1.178l-14.844,10.335a.378.378,0,0,1-.338.038.377.377,0,0,1-.256-.252l-.1-.3a.4.4,0,0,1,.123-.44l14.617-12.262a4.726,4.726,0,0,0,.612-6.625,4.727,4.727,0,0,0-6.619-.673l-7.917,6.393a.368.368,0,0,1-.387.068.366.366,0,0,1-.263-.292l-.4-1.728a.407.407,0,0,1,.153-.418l4.641-3.447a4.726,4.726,0,0,0,.976-6.612,4.726,4.726,0,0,0-6.612-.976l-4.641,3.447a9.858,9.858,0,0,0-3.723,10.147l.4,1.729a9.833,9.833,0,0,0,2.464,4.578,9.789,9.789,0,0,0-2.378,10.138l.1.3a9.85,9.85,0,0,0,1.984,3.421,9.806,9.806,0,0,0-1,8.248l4.535,14.018a9.808,9.808,0,0,0,4.748,5.668l11.917,6.343a11.274,11.274,0,0,0,5.305,1.324,11.3,11.3,0,0,0,7.692-3.018,11.259,11.259,0,0,0,.864-15.665l-2.763-3.2,4.428-2.109a4.558,4.558,0,0,0,.43.175l38.884,13.663a44.042,44.042,0,0,0,20.4,4.525,43.934,43.934,0,0,0,6.553-.645l29.231-5.115a34.462,34.462,0,0,1,4.382-.48l53.333-2.39,4.829,21.383a4.726,4.726,0,0,0,2.289,3.076,4.726,4.726,0,0,0,2.322.609,4.727,4.727,0,0,0,1.5-.243l114.862-38.319,6.808,39.894a4.728,4.728,0,0,0,4.653,3.932,4.723,4.723,0,0,0,.8-.069,4.727,4.727,0,0,0,3.863-5.454l-7.052-41.33,36.26-12.1c.126-.042.251-.09.372-.142,13.855-5.961,22.913-15.567,27.693-29.368,4.175-12.055,4.554-25.8,4.584-38.841.17-74.791-5.5-134.67-17.833-188.442" transform="translate(-56.943 -301.126)" fill="#3d3939"/>
    <path id="パス_41" data-name="パス 41" d="M526.693-941.242c4.084-2.768,7.75-5.744,7.75-11.668a11.064,11.064,0,0,0-.056-1.107q1.938-1.21,3.793-2.448a108.727,108.727,0,0,0,1.6,15.7,51.493,51.493,0,0,0,2.838,8.97c.009.024.019.047.028.07.02.047.037.1.057.142l.006.012c.021.048.044.1.066.142s.045.094.068.14c.015.028.027.058.042.086.568,1.43,2.8,7.99,4.3,12.394,2.114,6.218,3.007,8.829,3.342,9.623a175.115,175.115,0,0,1,9.2,29.138,253.629,253.629,0,0,1,5.677,44.08c-13.55,9.259-36.877,15.227-62.7,16.1,3.3-8.616,6.138-17.5,7.1-26.82a67.754,67.754,0,0,0-3.655-29.769c-.549-1.519-1.105-3.086-1.655-4.692l3.586-1.44a9.655,9.655,0,0,0,6.085-9v-6.525a9.094,9.094,0,0,0-2.932-6.678q-.209-.192-.429-.37l.264-.372a11.422,11.422,0,0,0,1.092-11.3l-1.615-3.559a6.811,6.811,0,0,0-5.992-4.246c-.168-.008-.335-.009-.5,0l-1.2-4.647,23.312-11.639a4.759,4.759,0,0,0,.541-.317" transform="translate(-265.09 -373.957)" fill="#fff"/>
    <path id="パス_42" data-name="パス 42" d="M421.474-601.849a4.726,4.726,0,0,0-3.115,5.525l.251,1.114c-.378-.484-.761-.975-1.136-1.452-4.342-5.544-8.444-10.781-11.571-15.656-4.455-6.945-8.107-12.854-11.445-19.117a4.712,4.712,0,0,0-1.071-1.339c2.445-7.317,4.682-14.961,6.712-22.985,6.305-24.927,10.123-50.753,13.815-75.729,1.905-12.889,3.875-26.216,6.154-39.167a4.725,4.725,0,0,0-2.8-5.166l-50.634-21.625L376-814.653a30,30,0,0,0,3.293-9.7l2.225-14.148a30.027,30.027,0,0,0-2.051-16.479l-18.807-44.032a6.1,6.1,0,0,1,1.254-6.68l29.093-29.715a6.932,6.932,0,0,1,3.071-1.821l54.267-15.278a1.7,1.7,0,0,1,.945.443,1.682,1.682,0,0,1,.54,1.241c0,.853,0,1.377-3.346,3.67l-24.575,12.269a9.428,9.428,0,0,0-6.827-.233L386.2-924.966a4.727,4.727,0,0,0-2.892,6.026,4.725,4.725,0,0,0,6.026,2.892l28.852-10.138,0,.014,1.579,6.137-29.388,8.905a4.727,4.727,0,0,0-3.153,5.895,4.728,4.728,0,0,0,5.895,3.153L426.842-912.3c.1-.032.206-.066.305-.1.154-.051.3-.1.447-.153l.781,1.72a1.94,1.94,0,0,1-.186,1.919l-3.573,5.023-23.449,6.439a4.727,4.727,0,0,0-3.306,5.809,4.727,4.727,0,0,0,5.809,3.307l25.866-7.1v5.946a.245.245,0,0,1-.155.228l-2.877,1.155c-.07-.258-.143-.512-.212-.772a4.727,4.727,0,0,0-5.781-3.355,4.727,4.727,0,0,0-3.355,5.781c1.472,5.547,3.238,10.635,4.926,15.307a58.251,58.251,0,0,1,3.143,25.591c-1.2,11.642-5.917,23.154-10.482,34.288-1.392,3.395-2.831,6.905-4.15,10.368A38.281,38.281,0,0,0,408.3-791.3a4.727,4.727,0,0,0,4.205,5.2,4.849,4.849,0,0,0,.5.026A4.727,4.727,0,0,0,417.7-790.3a28.814,28.814,0,0,1,1.727-7.234c1.276-3.352,2.692-6.806,4.062-10.146l.221-.54c26.245-.366,50.735-5.86,66.866-14.8.036,2.159.06,4.336.06,6.552,0,29.453-3.642,58.266-7.578,85.015-5,33.963-13.23,64.2-24.47,89.882-4.74,10.827-10.688,20.387-16.374,29.251a4.708,4.708,0,0,0-.588,3.751Z" transform="translate(-189.932 -376.045)" fill="#fff"/>
    <path id="パス_43" data-name="パス 43" d="M575.005-1240.029a4.718,4.718,0,0,1-3.914-2.07c-4.793-7.057-11.991-11.66-19.612-16.534-6.259-4-12.731-8.139-17.982-13.835-13.989-15.172-20.327-34.712-26.457-53.6-1.829-5.639-3.72-11.467-5.758-16.954-6.8-18.3-13.844-30.77-22.845-40.45-5.854-6.3-11.847-10.313-17.813-11.939-4.362-1.186-8.739-.43-14.193,2.453a4.727,4.727,0,0,1-6.388-1.966,4.729,4.729,0,0,1,1.968-6.39c4.8-2.543,12.214-5.639,21.1-3.219,7.692,2.094,15.179,7.014,22.251,14.624,9.888,10.635,17.532,24.077,24.784,43.593,2.108,5.672,4.03,11.6,5.889,17.328,5.816,17.928,11.83,36.47,24.416,50.121,4.421,4.793,10.106,8.427,16.123,12.275,8.09,5.176,16.455,10.521,22.34,19.185a4.726,4.726,0,0,1-1.255,6.565,4.7,4.7,0,0,1-2.651.818" transform="translate(-231.764 -137.207)" fill="#3d3939"/>
    <path id="パス_44" data-name="パス 44" d="M536.961-1228.471a4.728,4.728,0,0,1-4.618-3.743,4.727,4.727,0,0,1,3.639-5.607,82.858,82.858,0,0,0,17.7-5.831c21.185-9.951,31.032-35.873,35.016-50.445a105.5,105.5,0,0,0-3.284-65.94c-3.008-7.666-5.768-15.612-8.437-23.292-5.386-15.5-10.957-31.526-18.772-45.852a151.583,151.583,0,0,0-41.8-48.433c-16.3-12.209-31.612-17.172-46.812-15.172-3.916.515-12.065,1.588-15.376,4.972a4.727,4.727,0,0,1-6.684.076,4.726,4.726,0,0,1-.073-6.683c5.6-5.719,15.551-7.033,20.9-7.737,17.772-2.344,35.343,3.214,53.716,16.983a161.109,161.109,0,0,1,44.432,51.468c8.189,15.016,13.89,31.417,19.4,47.28,2.639,7.6,5.368,15.446,8.308,22.943a115.007,115.007,0,0,1,3.6,71.886c-4.414,16.141-15.495,44.941-40.115,56.505a92.446,92.446,0,0,1-19.753,6.522,4.732,4.732,0,0,1-.989.1" transform="translate(-235.254 -85.914)" fill="#3d3939"/>
    <path id="パス_45" data-name="パス 45" d="M219.057-1273.781a4.727,4.727,0,0,1-4.555-3.474,102.982,102.982,0,0,1-3.586-27.977c.112-15.9,3.56-32.906,10.853-53.528,11.916-33.691,25.782-68.857,52.461-96.053l.757-.77c9.369-9.562,22.2-22.673,37.253-21.534a4.726,4.726,0,0,1,4.36,5.067,4.726,4.726,0,0,1-5.066,4.363c-10.66-.8-21.725,10.483-29.794,18.722l-.761.775c-25.326,25.816-38.734,59.89-50.3,92.584-6.932,19.6-10.209,35.629-10.312,50.442a93.485,93.485,0,0,0,3.249,25.405,4.725,4.725,0,0,1-3.307,5.809,4.6,4.6,0,0,1-1.254.17" transform="translate(-111.223 -99.358)" fill="#3d3939"/>
    <path id="パス_46" data-name="パス 46" d="M296.65-1016.858a4.735,4.735,0,0,1-1.445-.227,64.373,64.373,0,0,1-19.366-10.077c-5.246-3.992-10.116-9.743-14.475-17.1-9.716-16.385-14.439-36.582-14.439-61.746a4.724,4.724,0,0,1,4.727-4.727,4.725,4.725,0,0,1,4.727,4.727c0,23.415,4.291,42.038,13.117,56.925,3.735,6.3,7.8,11.143,12.067,14.394a54.938,54.938,0,0,0,16.53,8.6,4.727,4.727,0,0,1,3.057,5.945,4.73,4.73,0,0,1-4.5,3.284" transform="translate(-130.214 -292.607)" fill="#3d3939"/>
    <path id="パス_47" data-name="パス 47" d="M312.374-1198.581a4.719,4.719,0,0,1-3.639-1.706,4.725,4.725,0,0,1,.616-6.655c11.157-9.264,11-29.555,10.873-45.857-.021-2.68-.041-5.213-.008-7.6l.033-2.51c.262-20.315.533-41.324,7.754-61.223,4.789-13.2,12.536-25.089,20.028-36.588,2.681-4.117,5.454-8.371,7.995-12.554a4.726,4.726,0,0,1,6.494-1.583,4.727,4.727,0,0,1,1.584,6.494c-2.619,4.306-5.432,8.626-8.153,12.8-7.2,11.051-14.645,22.48-19.062,34.655-6.676,18.4-6.936,38.592-7.188,58.118l-.033,2.519c-.031,2.288-.012,4.769.008,7.4.135,17.337.319,41.074-14.286,53.2a4.685,4.685,0,0,1-3.017,1.092" transform="translate(-162.234 -152.957)" fill="#e10012"/>
    <path id="パス_48" data-name="パス 48" d="M383.594-992.605a4.7,4.7,0,0,1-2.573-.765,123.172,123.172,0,0,1-30.012-27.053,4.722,4.722,0,0,1,.773-6.636,4.725,4.725,0,0,1,6.639.77,113.841,113.841,0,0,0,27.755,25,4.727,4.727,0,0,1,1.384,6.54,4.723,4.723,0,0,1-3.967,2.149" transform="translate(-184.564 -336.191)" fill="#3d3939"/>
    <path id="パス_49" data-name="パス 49" d="M413.6-1219.6a8.732,8.732,0,0,0-8.722,8.721,8.733,8.733,0,0,0,8.722,8.725,8.733,8.733,0,0,0,8.722-8.725,8.732,8.732,0,0,0-8.722-8.721" transform="translate(-213.51 -235.195)" fill="#3d3939"/>
    <path id="パス_50" data-name="パス 50" d="M556.073-1219.73a8.733,8.733,0,0,0-8.722,8.725,8.729,8.729,0,0,0,8.722,8.721A8.73,8.73,0,0,0,564.8-1211a8.734,8.734,0,0,0-8.723-8.725" transform="translate(-288.642 -235.126)" fill="#3d3939"/>
    <path id="パス_51" data-name="パス 51" d="M479.077-1076.875c-.4-.01-.792-.024-1.164-.038-4.537-.232-9.14-.26-13.685-.094-.527.019-1.2.014-1.912.009-4.435-.024-11.129-.061-14.523,4.9a4.736,4.736,0,0,0,1.223,6.579,4.708,4.708,0,0,0,2.672.832,4.694,4.694,0,0,0,3.889-2.051c.824-.837,5.081-.813,6.685-.8.815,0,1.583.01,2.308-.019,4.272-.156,8.6-.123,12.867.09.433.024.889.038,1.357.052,1.092.028,3.992.118,4.363.662a4.728,4.728,0,0,0,6.569,1.229,4.726,4.726,0,0,0,1.233-6.57c-3.087-4.509-8.594-4.675-11.885-4.774" transform="translate(-235.704 -310.335)" fill="#3d3939"/>
    <path id="パス_52" data-name="パス 52" d="M471.246-1134.041a4.728,4.728,0,0,0,4.727,4.727,4.728,4.728,0,0,0,4.727-4.727,54.192,54.192,0,0,0-.576-7.832,4.727,4.727,0,0,0-5.362-3.994,4.727,4.727,0,0,0-3.992,5.36,45.414,45.414,0,0,1,.476,6.466" transform="translate(-248.231 -274.051)" fill="#3d3939"/>
    <path id="パス_53" data-name="パス 53" d="M408.622-1271.12a4.727,4.727,0,0,0-6.667.473c-2.7,3.115-13.117,7.175-17.853,5.587a4.724,4.724,0,0,0-5.985,2.978,4.727,4.727,0,0,0,2.977,5.984,17.118,17.118,0,0,0,5.424.8c8.473,0,18.743-4.731,22.577-9.155a4.723,4.723,0,0,0-.473-6.664" transform="translate(-199.267 -207.416)" fill="#3d3939"/>
    <path id="パス_54" data-name="パス 54" d="M312.353-1198.581a4.719,4.719,0,0,1-3.639-1.706,4.725,4.725,0,0,1,.616-6.655c11.157-9.264,11-29.555,10.873-45.857-.021-2.68-.041-5.213-.008-7.6l.033-2.51c.262-20.315.533-41.324,7.754-61.223,4.789-13.2,12.536-25.089,20.028-36.588,2.681-4.117,5.453-8.371,7.995-12.554a4.726,4.726,0,0,1,6.494-1.583,4.727,4.727,0,0,1,1.584,6.494c-2.619,4.306-5.432,8.626-8.153,12.8-7.2,11.051-14.645,22.48-19.062,34.655-6.676,18.4-6.936,38.592-7.188,58.118l-.033,2.519c-.031,2.288-.012,4.769.009,7.4.135,17.337.319,41.074-14.286,53.2a4.685,4.685,0,0,1-3.017,1.092" transform="translate(-162.223 -152.957)" fill="#3d3939"/>
    <path id="パス_55" data-name="パス 55" d="M1732.616-873.909H1389.028s10.455-178.925,10.5-179.731c.028-.437-10.318-5.449-11.613-6.378-4.561-3.278-8.3-7.072-10.427-12.358-11.859-29.464-13.041-66.477-15.257-97.76-3.219-45.38-1.1-90.507,1.886-135.787a31.182,31.182,0,0,1,3.238-11.912,31.259,31.259,0,0,1,7.1-9.306l.165-.151a31.3,31.3,0,0,1,8.39-5.387l80.739-35.185,31.389-34.608c-1.914-.6-4.07-.974-5.809-1.99-3.276-1.914-5.473-6.135-4-9.845a7.491,7.491,0,0,1,7.558-4.467l19.6,1.881s-9.779-15.815-9.808-15.862a94.1,94.1,0,0,1-11.221-28.322,95.138,95.138,0,0,1-2.519-14.506c-.184-2.67.969-7.6-1.224-9.661-10.332-9.722-19.918-24.4-13.9-39.226.411-1.007,4.06-5.251,4.06-5.766.978-25.547,1.952-50.924,12.1-74.892,8.125-19.185,21.109-34.164,40.228-42.2h12.984s13.386-5.161,13.428-5.18c23.732-9.155,52.47-4.183,73.479,9.155a104.99,104.99,0,0,1,28.473,27.206c12.766,17.625,19.062,36.243,19.294,58.127.2,18.939-4.471,34.386-12.993,51l-10.2,10.814c2.94,4.3,5.246,7.18,4,12.648-2.779,12.185-10.455,21.865-22.021,26.681h-6.778c-2.954,5.54-5.355,11.363-8.427,16.841-1.352,2.42-8.011,9.221-8.011,11.741v25.245l35.185,35.185c3.663,3.663,12.894,5.643,17.569,7.709,7.4,3.271,14.752,6.8,22.267,9.883,19.459,7.986,46.694,13.975,53.316,36.049l17.3,117.667s7.808,61.885,8.068,63.971c2.93,23.223-2.694,35.222-20.32,51.788-5.606,5.271-11.925,10.854-19.62,11.162-9.061.361-4.58,18.917-4.164,26.308q1.255,22.157,2.505,44.313,2.737,48.293,5.464,96.584c.085,1.528,1.366,28.52,1.612,28.52" transform="translate(-717.516 -4.442)" fill="#fff"/>
    <path id="パス_56" data-name="パス 56" d="M1783.668-1496.206l10.2-10.814c8.522-16.614,13.2-32.06,13-51-.236-21.884-6.527-40.5-19.294-58.127a105.126,105.126,0,0,0-28.473-27.206c-21.014-13.338-49.752-18.311-73.484-9.155-.042.019-13.428,5.18-13.428,5.18h-12.984c-19.119,8.035-32.1,23.014-40.228,42.2-10.148,23.969-11.122,49.345-12.1,74.892l3.918-2.349a9.116,9.116,0,0,1,4.689-1.3h.463a9.084,9.084,0,0,1,5.091,1.555c-1.262-.851,8.3-14.912,9.1-16.151,7.624-11.812,16.557-22.848,27.811-31.389a100.557,100.557,0,0,1,10.446-6.939q2.765-1.6,5.625-3.016c.86-.425,3.951-1.29,3.951-2.5,0,10.3.274,18.868,3.956,28.728,5.7,15.257,15.271,27.263,27.074,38.219l6.537,4.769-1.347-4.665a35.874,35.874,0,0,1,7.213-33.308c4.963,11.079,9.576,22.3,17.266,31.81a99.72,99.72,0,0,0,18.212,17.431c3.034,2.24,13.31,11.845,14.7,11.325l1.494-.515A10.407,10.407,0,0,1,1783.668-1496.206Z" transform="translate(-847.378 -4.442)" fill="#606060" stroke="#606060" stroke-linecap="round" stroke-linejoin="round" stroke-width="10"/>
    <path id="パス_57" data-name="パス 57" d="M1463.75-1083.46l-80.739,35.185a31.183,31.183,0,0,0-8.385,5.388l-.17.151a31.265,31.265,0,0,0-7.1,9.306,31.183,31.183,0,0,0-3.238,11.912c-2.987,45.281-5.1,90.407-1.886,135.788,2.217,31.283,3.4,68.3,15.257,97.76l10.427,12.358,11.613,6.378,194.125-27.157-4.736-104.513-32.627,6.845-20.178-119.974q-6.126-4.94-12.247-9.879c-5.738-4.63-12.866-9.071-15.64-16.277-1.872-4.858-2.278-10.257-3.975-15.182q-2.73-1.977-5.454-3.955c-3.668-2.663-8.513-6.616-7.562-11.744a7.819,7.819,0,0,1,2.86-4.6c.865-.709,2.987-1.087,3.62-1.806.307-.354-1.9-6.1-1.98-6.9-.345-3.361.392-8.026,3.772-9.68,1.257-.619,2.751-.51,4.018-1.191a37.184,37.184,0,0,1-2.741-7.459c-1.234-5.833,1.139-8.933,5.582-12.27l-13.7-2.883-8.413,12.885Z" transform="translate(-717.516 -288.847)" fill="#d3d7dd"/>
    <path id="パス_58" data-name="パス 58" d="M1764.308-306.589H1420.72s10.455-178.925,10.5-179.731l194.125-27.157-1.153-15.367,46.146-11.931-11.367-35.377,17.517-5.216,58.453,70.971,5,5.341,9.524,3.119h3.55s11.051,195.348,11.3,195.348" transform="translate(-749.207 -571.762)" fill="#d3d7dd"/>
    <path id="パス_59" data-name="パス 59" d="M1965.123-797.267c17.625-16.567,23.25-28.565,20.32-51.789-.26-2.085-8.068-63.971-8.068-63.971l-17.3-117.667c-6.622-22.074-33.856-28.062-53.316-36.049-7.515-3.086-14.87-6.613-22.267-9.883-4.675-2.066-13.906-4.046-17.569-7.709l-35.185-35.185v15.782l-22.853,56.912,13.461,17.3,4.613-5,23.226,24.61-41.3,61.141L1785.423-970.3l-10.833,75.369,54.5-11.431,97.462,117.52,13.074,3.119h13.844Z" transform="translate(-935.819 -287.971)" fill="#d3d7dd"/>
    <path id="パス_60" data-name="パス 60" d="M1365.393-802.858a4.733,4.733,0,0,1-4.637-3.83c-3.89-20.147-15.81-95.009-5.781-212.478a4.591,4.591,0,0,1,.345-1.416,46.09,46.09,0,0,1,23.992-24.519l15.678-6.937,60.491-26.156,20.513-21.336a4.726,4.726,0,0,1,6.683-.132,4.726,4.726,0,0,1,.132,6.683l-21.175,22.021a4.723,4.723,0,0,1-1.531,1.063l-61.327,26.517-15.64,6.921a36.665,36.665,0,0,0-18.807,18.851c-9.808,115.813,1.886,189.322,5.71,209.123a4.726,4.726,0,0,1-3.743,5.537,4.744,4.744,0,0,1-.9.087" transform="translate(-712.47 -297.748)" fill="#3d3939"/>
    <path id="パス_61" data-name="パス 61" d="M1484.331-914.671a4.716,4.716,0,0,1-4.136-2.436l-16.727-30.183a4.726,4.726,0,0,1,1.843-6.425,4.725,4.725,0,0,1,6.423,1.843l16.727,30.182a4.727,4.727,0,0,1-1.843,6.426,4.714,4.714,0,0,1-2.288.593" transform="translate(-771.437 -375.095)" fill="#3d3939"/>
    <path id="パス_62" data-name="パス 62" d="M1864.8-1279.544a57.166,57.166,0,0,0,6.471-2.373,46.729,46.729,0,0,0,15.773-11.552,33.724,33.724,0,0,0,8.007-20.787c.189-3.928-.255-9.59-3.436-14.26-2.047-3.011-6.906-7.61-16.439-4.6a4.722,4.722,0,0,0-3.082,5.932,4.726,4.726,0,0,0,5.927,3.082c4.249-1.342,5.246.118,5.781.907,1.333,1.957,1.976,4.968,1.805,8.484a24.252,24.252,0,0,1-5.634,14.969,37.134,37.134,0,0,1-9.713,7.756,4.735,4.735,0,0,0-2.893-5.038,4.726,4.726,0,0,0-6.159,2.59c-6.3,15.423-14,27.371-23.557,36.527a110.932,110.932,0,0,1-25.8,18.391c-2.349,1.219-4.684,2.321-6.939,3.266a4.725,4.725,0,0,0-2.519,6.192,4.73,4.73,0,0,0,4.358,2.893,4.717,4.717,0,0,0,1.829-.369c2.486-1.049,5.048-2.255,7.619-3.587a120.74,120.74,0,0,0,26.1-18.2v10.72l-23.959,22.962a4.727,4.727,0,0,0-.142,6.683,4.715,4.715,0,0,0,3.412,1.456,4.708,4.708,0,0,0,3.271-1.314l17.417-16.694v7.5L1830-1189.915a4.728,4.728,0,0,0,2.429,6.23,4.735,4.735,0,0,0,1.9.4,4.737,4.737,0,0,0,4.334-2.831l12.7-28.993a4.707,4.707,0,0,0,.4-1.9v-3.923l26.006,27.045a4.722,4.722,0,0,0,1.531,1.063l9.013,3.895a4.7,4.7,0,0,0,1.872.392,4.73,4.73,0,0,0,4.344-2.855,4.723,4.723,0,0,0-2.463-6.211l-8.144-3.521-32.16-33.445v-24.71a111.665,111.665,0,0,0,13.041-20.263" transform="translate(-950.284 -174.816)" fill="#3d3939"/>
    <path id="パス_63" data-name="パス 63" d="M1619.063-1317.277c-5.577-13.022-7.917-28.317-7.151-46.755a4.73,4.73,0,0,0-4.528-4.916,4.737,4.737,0,0,0-4.92,4.528c-.028.681-.042,1.352-.062,2.028a37.18,37.18,0,0,1-5.7-10.687,24.261,24.261,0,0,1,.676-15.98c1.219-3.3,2.987-5.823,4.982-7.1.61-.4,1.631-1.04,3.592-.024-.2,1.224-.392,2.481-.591,3.8a4.726,4.726,0,0,0,3.98,5.374,5.031,5.031,0,0,0,.7.052,4.731,4.731,0,0,0,4.67-4.032c.345-2.321.69-4.452,1.049-6.513a.851.851,0,0,0,.014-.109c.014-.094.028-.189.038-.284,0-.071.01-.137.01-.208s.01-.161.01-.236,0-.166-.01-.241-.01-.142-.014-.208c-.009-.085-.019-.17-.033-.255-.009-.066-.024-.132-.038-.2s-.033-.166-.052-.246-.038-.137-.061-.208-.042-.147-.071-.217-.057-.151-.09-.227-.052-.123-.08-.18c-.038-.085-.076-.166-.118-.241-.033-.057-.062-.109-.09-.161-.047-.08-.095-.156-.146-.232-.038-.052-.071-.1-.109-.156s-.1-.137-.161-.2-.094-.113-.142-.165-.1-.114-.156-.166-.128-.123-.194-.184c-.028-.028-.057-.057-.085-.08s-.08-.066-.123-.1c-.01-.009-.019-.014-.024-.024-7.529-6.343-13.74-4.036-16.784-2.08-4.755,3.053-7.378,8.087-8.739,11.774a33.723,33.723,0,0,0-.771,22.267,46.694,46.694,0,0,0,10,16.8,55.71,55.71,0,0,0,4.845,4.566c.77,13.154,3.346,24.758,7.8,35.147a115.4,115.4,0,0,0,8.035,15.385,4.721,4.721,0,0,0,4.018,2.236,4.723,4.723,0,0,0,2.491-.714,4.727,4.727,0,0,0,1.522-6.509,106.549,106.549,0,0,1-7.378-14.118" transform="translate(-836.472 -136.8)" fill="#3d3939"/>
    <path id="パス_64" data-name="パス 64" d="M1946.152-965.454a4.716,4.716,0,0,1-2.307-.6,4.729,4.729,0,0,1-1.81-6.434l10.606-18.925-16.534-6.9a4.723,4.723,0,0,1-2.713-3.025,4.721,4.721,0,0,1,.638-4.012l9.1-13.267a4.723,4.723,0,0,1,6.57-1.219,4.728,4.728,0,0,1,1.224,6.57l-5.814,8.469,16.066,6.7a4.727,4.727,0,0,1,2.647,2.82,4.721,4.721,0,0,1-.345,3.854l-13.2,23.555a4.736,4.736,0,0,1-4.131,2.416" transform="translate(-1019.461 -340.1)" fill="#3d3939"/>
    <path id="パス_65" data-name="パス 65" d="M1630.242-850.866a4.722,4.722,0,0,1-4.126-2.416l-77.44-138.144a4.719,4.719,0,0,1-.345-3.853,4.729,4.729,0,0,1,2.647-2.82l16.066-6.7-5.814-8.469a4.735,4.735,0,0,1,1.224-6.575,4.729,4.729,0,0,1,6.57,1.224l9.108,13.267a4.722,4.722,0,0,1,.633,4.013,4.722,4.722,0,0,1-2.713,3.024l-16.534,6.9,74.84,133.514a4.725,4.725,0,0,1-1.81,6.434,4.716,4.716,0,0,1-2.307.6" transform="translate(-816.366 -340.098)" fill="#3d3939"/>
    <path id="パス_66" data-name="パス 66" d="M2130.813-200.538a4.729,4.729,0,0,1-4.717-4.454l-9.845-170.287a4.726,4.726,0,0,1,4.448-4.992,4.721,4.721,0,0,1,4.991,4.446l9.845,170.287a4.725,4.725,0,0,1-4.448,4.991c-.09.006-.184.008-.274.008" transform="translate(-1115.987 -677.805)" fill="#3d3939"/>
    <path id="パス_67" data-name="パス 67" d="M1762.392-1044.556c-1.238-7.813-2.132-13.458-2.477-15.792a4.666,4.666,0,0,0-.577-1.668c-5.932-10.331-14.974-14.744-25.443-19.853-1.323-.646-2.68-1.308-4.07-2-.085-.043-.175-.084-.265-.123l-3.214-1.362-.066-.029-24.313-9.857a4.724,4.724,0,0,0-6.154,2.6,4.727,4.727,0,0,0,2.6,6.159l24.276,9.84,3.044,1.292c1.366.681,2.7,1.334,4.013,1.971,9.5,4.637,16.448,8.027,20.953,15.328.416,2.763,1.248,8.009,2.354,14.969,6.886,43.449,25.178,158.864,25.112,188.544a22.954,22.954,0,0,1-5.979,15.431l-16.836,18.54a23.01,23.01,0,0,1-17.588,7.541,23.018,23.018,0,0,1-17.219-8.363l-57.319-69.449s0,0,0,0l-8.4-10.181L1633.38-927l-4.443-5.384s0,0,0,0l-23.893-28.946,44.014-63.689,57.759,57.388a.755.755,0,0,0,.061.06l44.6,42.747a4.721,4.721,0,0,0,6.679-.142,4.722,4.722,0,0,0-.142-6.683l-44.572-42.716-61.734-61.34-.043-.034c-.014-.014-.024-.028-.038-.042l-25.278-23.977a4.726,4.726,0,0,0-6.6.09l-.619.623-8.569-9.235a9.741,9.741,0,0,1-2.543-5.682l-2.477-25.982a19.141,19.141,0,0,0-6.074-12.256l-42.941-39.68a18.264,18.264,0,0,0-7.25-4.1l-13.57-3.937a18.116,18.116,0,0,0-3.512-.652l-25.146-2.146c-.132-.01-.265-.014-.4-.014a12.014,12.014,0,0,0-12,12,12.018,12.018,0,0,0,11.1,11.968l7.123.955a15.163,15.163,0,0,0-2.647,8.565v.222a14.8,14.8,0,0,0,2.217,7.775,13.691,13.691,0,0,0-6.9,10.427,13.658,13.658,0,0,0,1.787,8.418,13.356,13.356,0,0,0-3.115,3.791,13.414,13.414,0,0,0,3.238,16.857l6.315,5.177a7.111,7.111,0,0,1,2.174,3.074l4.887,13.491a22.648,22.648,0,0,0,4.561,7.558l5.521,6.073a22.99,22.99,0,0,0,1.966,1.916l9.278,8.013a22.675,22.675,0,0,0,7.331,4.249l3.086,1.083a13.363,13.363,0,0,1,5.5,3.672l3.918,4.369a4.721,4.721,0,0,0,3.521,1.571,4.7,4.7,0,0,0,3.153-1.207,4.726,4.726,0,0,0,.364-6.674l-3.918-4.37a22.819,22.819,0,0,0-9.4-6.28l-3.086-1.083a13.252,13.252,0,0,1-4.287-2.484l-9.278-8.013a13.592,13.592,0,0,1-1.149-1.121l-5.521-6.073a13.222,13.222,0,0,1-2.666-4.42l-4.887-13.492a16.594,16.594,0,0,0-5.072-7.163l-6.315-5.177a3.973,3.973,0,0,1-.955-4.982,3.963,3.963,0,0,1,3.087-2.028l4.093,1.456,4.8,5.658a4.728,4.728,0,0,0,6.664.553,4.726,4.726,0,0,0,1.669-3.611,4.719,4.719,0,0,0-1.12-3.053l-5.625-6.631,0-.009h0a0,0,0,0,0,0,0v0a0,0,0,0,1,0,0h0l-.014-.014h0a0,0,0,0,0,0,0v0a0,0,0,0,1,0,0h0s0-.01-.01-.014h0s0,0,0-.009h0a0,0,0,0,0,0,0l-.014-.014v0a0,0,0,0,1,0,0h0l-.019-.019v0s0,0-.009,0h0a.085.085,0,0,0-.019-.024h0a.126.126,0,0,1-.024-.028l-.028-.028a4.783,4.783,0,0,0-1.366-.988l-2.718-1.309a13.272,13.272,0,0,0-4.367-1.257,4.226,4.226,0,0,1-2.477-4.325,4.257,4.257,0,0,1,4.627-3.758l6.91.681,11.169,12.729a4.727,4.727,0,0,0,6.669.435,4.728,4.728,0,0,0,1.607-3.559,4.7,4.7,0,0,0-1.172-3.11l-12.4-14.132s0,0,0-.01h0l-.014-.014h0l-.014-.014v0l-.014-.014h0a4.735,4.735,0,0,0-2.2-1.371l-6.518-1.9a5.428,5.428,0,0,1-3.9-5.19v-.222a5.785,5.785,0,0,1,5.336-5.771l4.471-.326,15.645,10.871a4.727,4.727,0,0,0,6.579-1.186,4.7,4.7,0,0,0,.846-2.694,4.711,4.711,0,0,0-2.032-3.88l-17.016-11.826a0,0,0,0,0,0,0,0,0,0,0,1,0,0,0,0,0,0,1,0,0h0l0,0h0a0,0,0,0,0,0,0l0,0,0,0h0l0,0h0l-.014-.014h0l0,0h0l-.024-.019h0s0,0,0-.009a.025.025,0,0,1-.019-.01h0l0,0h0a.087.087,0,0,0-.024-.019h0a0,0,0,0,0,0,0h0a.064.064,0,0,0-.019-.014h0l0,0h0s0,0-.01,0h0s0,0-.009-.01h0a.017.017,0,0,0-.009,0h0l0,0h0s0,0-.01,0v0a.015.015,0,0,1-.009,0h0s0,0-.009,0h0s0,0-.01,0h0s0,0-.01,0a0,0,0,0,0,0,0h0s0,0,0,0h0v0s0,0-.01,0h0a0,0,0,0,0,0,0h0l0,0h0s0,0,0,0a.016.016,0,0,0-.01,0h0l0,0s0,0,0,0h-.009a0,0,0,0,0,0,0h0s-.009,0-.014-.009h0s0,0-.009,0h0s0,0,0,0h0a.037.037,0,0,0-.019-.01v0h-.009a.1.1,0,0,0-.028-.019h0a4.616,4.616,0,0,0-1.593-.506l-24.578-3.294c-.114-.014-.232-.028-.35-.033a2.551,2.551,0,0,1-2.4-2.543,2.556,2.556,0,0,1,2.4-2.548l24.89,2.127a8.494,8.494,0,0,1,1.683.312l13.565,3.937a8.726,8.726,0,0,1,3.474,1.962l42.941,39.679a9.686,9.686,0,0,1,3.077,6.211l2.472,25.981a19.271,19.271,0,0,0,5.029,11.214l8.815,9.5-44.576,44.674a4.72,4.72,0,0,0-1.38,3.39,4.7,4.7,0,0,0,1.451,3.359l22.773,21.856a4.71,4.71,0,0,0,3.271,1.316,4.72,4.72,0,0,0,3.413-1.453,4.731,4.731,0,0,0-.137-6.683l-19.294-18.519,45.219-45.32,19,18.019-46.954,67.947a4.726,4.726,0,0,0,.246,5.7l21.6,26.165-14.747,4.288-25.519,4.588,7.482-53.294a4.725,4.725,0,0,0-4.022-5.338,4.728,4.728,0,0,0-5.336,4.023l-4.457,31.748-14.44-74.41a4.725,4.725,0,0,0-5.54-3.74,4.728,4.728,0,0,0-3.739,5.541l18.911,97.473-95.9,17.242a.478.478,0,0,1,0-.081l-13.268-103.14a4.731,4.731,0,0,0-5.294-4.085,4.729,4.729,0,0,0-4.084,5.29l13.267,103.14a5.052,5.052,0,0,0,.1.543l-5.5.988a4.727,4.727,0,0,0-3.814,5.488,4.724,4.724,0,0,0,5.488,3.816l142.307-25.584,4.9,93.553-181.784,24.865a23.159,23.159,0,0,1-24.11-13.348,4.728,4.728,0,0,0-6.253-2.366,4.726,4.726,0,0,0-2.368,6.252,32.645,32.645,0,0,0,20.14,17.674l-9.983,172.621a4.729,4.729,0,0,0,4.448,4.991c.09.006.184.008.274.008a4.73,4.73,0,0,0,4.717-4.454l9.931-171.72.151,0a31.976,31.976,0,0,0,4.334-.294l186.09-25.454a4.724,4.724,0,0,0,4.079-4.93l-5.2-99.507,15.3-4.449,2.188,2.654,21.941,70.557-22.792,6.037a4.722,4.722,0,0,0-3.356,5.779,4.725,4.725,0,0,0,4.566,3.518,4.729,4.729,0,0,0,1.21-.159l27.561-7.3a4.72,4.72,0,0,0,2.926-2.281,4.724,4.724,0,0,0,.378-3.691l-9.566-30.765,9.255-2.78,55.324,67.03a32.461,32.461,0,0,0,24.285,11.8q.383.009.766.009a32.465,32.465,0,0,0,24.044-10.645l16.836-18.54a32.408,32.408,0,0,0,8.432-21.765c.066-30.434-18.311-146.391-25.23-190.044" transform="translate(-732.445 -265.185)" fill="#3d3939"/>
    <path id="パス_68" data-name="パス 68" d="M1928.9-597.265l-4.112-12.669,9.2,11.141Z" transform="translate(-1015.026 -556.698)" fill="#fff"/>
    <path id="パス_69" data-name="パス 69" d="M1769.317-391.876a4.728,4.728,0,0,0-4.727,4.727v138.533a4.728,4.728,0,0,0,4.727,4.727,4.725,4.725,0,0,0,4.727-4.727V-387.149a4.725,4.725,0,0,0-4.727-4.727" transform="translate(-930.545 -671.69)" fill="#3d3939"/>
    <path id="パス_70" data-name="パス 70" d="M1521.04-109.145a4.728,4.728,0,0,1-4.727-4.727v-19.8l-51.633,3.956a4.732,4.732,0,0,1-5.076-4.352,4.727,4.727,0,0,1,4.353-5.074l56.724-4.345a4.735,4.735,0,0,1,3.573,1.245,4.729,4.729,0,0,1,1.512,3.467v24.9a4.728,4.728,0,0,1-4.727,4.727" transform="translate(-769.706 -802.667)" fill="#3d3939"/>
    <path id="パス_71" data-name="パス 71" d="M1977.627-109.145a4.728,4.728,0,0,1-4.727-4.727v-24.9a4.715,4.715,0,0,1,1.517-3.467,4.716,4.716,0,0,1,3.573-1.245l56.634,4.339a4.727,4.727,0,0,1,4.353,5.073,4.743,4.743,0,0,1-5.076,4.352l-51.548-3.949v19.8a4.728,4.728,0,0,1-4.727,4.727" transform="translate(-1040.396 -802.667)" fill="#3d3939"/>
    <path id="パス_72" data-name="パス 72" d="M1822.868-327.219a6.434,6.434,0,0,0-6.428,6.425,6.434,6.434,0,0,0,6.428,6.425,6.432,6.432,0,0,0,6.423-6.425,6.433,6.433,0,0,0-6.423-6.425" transform="translate(-957.888 -705.786)" fill="#3d3939"/>
    <path id="パス_73" data-name="パス 73" d="M1876.294-1510.9a4.712,4.712,0,0,1-2.236-.562,4.729,4.729,0,0,1-1.919-6.4c1.564-2.907,2.671-5.171,3.578-7.336a85.637,85.637,0,0,0,6.3-27.537c.969-14.723-.354-36.343-12.166-55.726a117.488,117.488,0,0,0-18.679-23.477c-17.54-16.9-39.292-25.235-62.911-24.1-8.527.411-17.4,1.13-23.836,4.92a4.727,4.727,0,0,1-6.471-1.678,4.727,4.727,0,0,1,1.673-6.471c8.3-4.883,18.9-5.766,28.185-6.215,26.28-1.257,50.456,7.988,69.92,26.738a126.781,126.781,0,0,1,20.192,25.368c10.365,17.011,15.045,38.2,13.523,61.261a94.988,94.988,0,0,1-7.01,30.576c-1.031,2.458-2.255,4.972-3.97,8.158a4.727,4.727,0,0,1-4.169,2.486" transform="translate(-926.698)" fill="#3d3939"/>
    <path id="パス_74" data-name="パス 74" d="M1604.036-1544.332c-.071,0-.142,0-.213,0a4.721,4.721,0,0,1-4.509-4.93c.78-17.559,6.461-35.638,11.32-49.43,5.521-15.659,12.738-26.809,22.716-35.076,7.61-6.315,17.611-13.527,27.674-13.527.113,0,.222,0,.331,0a4.723,4.723,0,0,1,4.651,4.8,4.728,4.728,0,0,1-4.8,4.651c-8.007-.123-18.041,8.205-21.827,11.344-8.72,7.232-14.837,16.775-19.833,30.945-4.641,13.173-10.068,30.392-10.791,46.7a4.73,4.73,0,0,1-4.722,4.519" transform="translate(-843.386 -9.65)" fill="#3d3939"/>
    <path id="パス_75" data-name="パス 75" d="M1883.194-1408.3a4.731,4.731,0,0,1-2.689-.841,114.563,114.563,0,0,1-23.968-21.813c-9.406-11.542-19.492-30.619-19.417-45.214a4.726,4.726,0,0,1,4.727-4.7h.024a4.729,4.729,0,0,1,4.7,4.75c-.062,11.6,8.862,28.851,17.294,39.2a105.377,105.377,0,0,0,22.026,20.017,4.722,4.722,0,0,1,1.191,6.575,4.728,4.728,0,0,1-3.89,2.032" transform="translate(-968.793 -97.416)" fill="#3d3939"/>
    <path id="パス_76" data-name="パス 76" d="M1788.758-1457.189a4.686,4.686,0,0,1-2.481-.709c-13.1-8.106-24.247-20.839-31.37-35.861-7.336-15.46-9.741-32.107-6.783-46.869a4.737,4.737,0,0,1,5.568-3.706,4.726,4.726,0,0,1,3.7,5.563c-5.194,25.887,9.68,57.881,33.856,72.832a4.731,4.731,0,0,1,1.536,6.509,4.731,4.731,0,0,1-4.027,2.24" transform="translate(-921.212 -63.9)" fill="#3d3939"/>
    <path id="パス_77" data-name="パス 77" d="M1721.1-1382h0a7.777,7.777,0,0,0-6.059-9.16,7.711,7.711,0,0,0-5.837,1.13,7.743,7.743,0,0,0-3.328,4.93,7.7,7.7,0,0,0,1.134,5.837,7.7,7.7,0,0,0,4.925,3.323,7.584,7.584,0,0,0,1.555.161,7.787,7.787,0,0,0,7.61-6.22" transform="translate(-899.496 -144.64)" fill="#3d3939"/>
    <path id="パス_78" data-name="パス 78" d="M1850.895-1363.7a7.724,7.724,0,0,0-5.837,1.134,7.7,7.7,0,0,0-3.323,4.925,7.778,7.778,0,0,0,6.06,9.165,7.921,7.921,0,0,0,1.555.156,7.778,7.778,0,0,0,7.605-6.22,7.773,7.773,0,0,0-6.059-9.16" transform="translate(-971.144 -159.123)" fill="#3d3939"/>
    <path id="パス_79" data-name="パス 79" d="M1758.67-1251.665a37.544,37.544,0,0,0-4.547-1.484c-4.386-1.125-8.886-2.075-13.367-2.822a75.079,75.079,0,0,0-7.719-.969,11.142,11.142,0,0,0-11.486,8.891,11.08,11.08,0,0,0,1.938,8.782,11.176,11.176,0,0,0,7.889,4.462,4.726,4.726,0,0,0,5.161-4.249,4.732,4.732,0,0,0-4.249-5.161,1.662,1.662,0,0,1-1.2-.671,1.584,1.584,0,0,1-.274-1.314,1.637,1.637,0,0,1,1.673-1.3,64.7,64.7,0,0,1,6.712.855c4.211.7,8.442,1.593,12.568,2.652a28.737,28.737,0,0,1,3.394,1.106,1.623,1.623,0,0,1,.983,1.839,1.578,1.578,0,0,1-.77,1.073,1.631,1.631,0,0,1-1.342.137c-.8-.265-1.64-.51-2.477-.728a4.724,4.724,0,0,0-5.752,3.4,4.721,4.721,0,0,0,3.4,5.752c.629.161,1.253.345,1.853.544a11.1,11.1,0,0,0,3.5.567,11.09,11.09,0,0,0,5.558-1.494,11.059,11.059,0,0,0,5.3-7.369,11.064,11.064,0,0,0-6.745-12.5" transform="translate(-907.732 -215.495)" fill="#3d3939"/>
    <path id="パス_80" data-name="パス 80" d="M1757.293-1308.174a44.647,44.647,0,0,1,.406,5.951,4.725,4.725,0,0,0,4.727,4.727,4.725,4.725,0,0,0,4.727-4.727,54.742,54.742,0,0,0-.487-7.208,4.729,4.729,0,0,0-5.317-4.055,4.728,4.728,0,0,0-4.055,5.313" transform="translate(-926.675 -185.662)" fill="#3d3939"/>
    <path id="パス_81" data-name="パス 81" d="M1723.023-1418.163a4.721,4.721,0,0,0,1.078.123,4.729,4.729,0,0,0,4.6-3.654,4.727,4.727,0,0,0-3.531-5.677c-3.663-.855-7.194-1.9-10.611-2.911-3.469-1.03-7.057-2.094-10.819-2.968a4.723,4.723,0,0,0-5.677,3.531,4.73,4.73,0,0,0,3.531,5.677c3.493.813,6.787,1.787,10.28,2.822,3.545,1.054,7.213,2.141,11.15,3.058" transform="translate(-895.397 -122.462)" fill="#3d3939"/>
    <path id="パス_82" data-name="パス 82" d="M1648.984-1467.412a4.776,4.776,0,0,1-2.642-.8,4.776,4.776,0,0,1-1.328-6.627c1.607-2.42,3.209-4.608,4.849-6.825a134.354,134.354,0,0,1,20.778-22.243c2.1-1.8,5.445-4.523,9.439-7.317a4.781,4.781,0,0,1,6.655,1.177,4.778,4.778,0,0,1-1.182,6.655c-3.677,2.571-6.764,5.09-8.706,6.75a125.162,125.162,0,0,0-19.3,20.66c-1.565,2.118-3.091,4.2-4.58,6.438a4.774,4.774,0,0,1-3.984,2.132" transform="translate(-867.064 -80.955)" fill="#3d3939"/>
    <path id="パス_83" data-name="パス 83" d="M1481.674-1543.946a5.106,5.106,0,0,1-.6-.038,4.732,4.732,0,0,1-4.1-5.284c1.418-11.174-6.924-27.636-16.85-33.228-2.595-1.465-3.994-1.541-4.33-1.446-.326.364-.931,2.3-.175,5.776,1.068,4.939,4.542,10.762,9.122,12.332a4.722,4.722,0,0,1,2.935,6,4.725,4.725,0,0,1-6,2.94c-9.231-3.162-14.591-13.3-15.664-21.383-.813-6.1.822-11.027,4.49-13.509,2.571-1.739,7.137-2.968,14.27,1.054,6.357,3.583,12.379,10.351,16.519,18.561,4.122,8.182,5.97,16.964,5.067,24.091a4.732,4.732,0,0,1-4.684,4.131" transform="translate(-762.437 -38.065)" fill="#3d3939"/>
    <path id="パス_84" data-name="パス 84" d="M1411.969-1397.876a26.908,26.908,0,0,1-11.627-2.732,11.733,11.733,0,0,1-6.683-10.479,11.541,11.541,0,0,1,6.263-10.493c14.426-7.425,37.817,1.881,50.38,6.882l.993.392a4.734,4.734,0,0,1,2.652,6.14,4.728,4.728,0,0,1-6.14,2.647l-1-.4c-9.562-3.8-31.952-12.719-42.553-7.26a2.078,2.078,0,0,0-1.139,1.952,2.292,2.292,0,0,0,1.314,2.089,15.9,15.9,0,0,0,13.277.643,4.725,4.725,0,0,1,6.2,2.5,4.724,4.724,0,0,1-2.491,6.2,24.03,24.03,0,0,1-9.444,1.919" transform="translate(-734.936 -127.221)" fill="#3d3939"/>
    <path id="パス_85" data-name="パス 85" d="M81.282-1459.069a3.7,3.7,0,0,1-.844-.1,14.176,14.176,0,0,1-10.646-13.253,25.233,25.233,0,0,1,1.37-8.943c.2-.685.381-1.3.526-1.862-3.828,2.24-7.838,3.947-10.875,3.947h-.028a6.26,6.26,0,0,1-5.544-2.836c-2.488-3.918-1.611-8.323,2.29-11.49,4.8-3.9,13.24-5.27,17.352-1.267.118.118.233.232.344.345a17.77,17.77,0,0,0,2.394-2.212c2.419-3.753,1.395-5.412,1.009-6.036a10.351,10.351,0,0,0-4.77-3.493l-13.417,9.926c-2.894,2.141-6.175,4.571-10.262,5.62-5.178,1.328-10.373-.161-13.233-3.8-4.079-5.195-2.035-12.62,2.2-16.524a18.815,18.815,0,0,1,6.944-3.928c-9.687,2.217-19.742,2.477-26.85.25-4.281-1.342-7.151-3.758-8.3-6.981-1.888-5.308,1.253-10.961,8.4-15.13,11.4-6.646,22.671-10.016,33.491-10.016h.009a46.46,46.46,0,0,1,18.2,3.673,12.187,12.187,0,0,0-3.554-8.4c-7.4-8.035-23.636-11.183-32.024-10.285-9.752,1.04-20.006,5.431-29.654,12.705a3.637,3.637,0,0,1-5.086-.714,3.632,3.632,0,0,1,.715-5.086c10.7-8.063,22.2-12.946,33.254-14.128,9.749-1.04,28.6,2.24,38.136,12.587a19.323,19.323,0,0,1,5.134,17.077,36.711,36.711,0,0,1,7.45,6.617c3.913,4.6,5.149,9.562,3.39,13.608-1.2,2.76-3.522,4.481-5.218,5.733l-3.282,2.429a14.6,14.6,0,0,1,4.5,4.452c1.741,2.822,2.962,7.51-1.112,13.825a25.191,25.191,0,0,1-4.721,4.533c.807,3.29-.078,6.3-.848,8.914a18.481,18.481,0,0,0-1.088,6.466,6.971,6.971,0,0,0,5.077,6.617,3.629,3.629,0,0,1,2.692,4.372,3.634,3.634,0,0,1-3.529,2.793" transform="translate(0 -50.794)" fill="#3d3939"/>
    <path id="パス_86" data-name="パス 86" d="M136.367-1401.59a10.169,10.169,0,0,0-6.121,2.1c-.758.633-.946,1.04-.912,1.361,1.038-.118,3.5-.855,7.69-3.431a5.634,5.634,0,0,0-.657-.033" transform="translate(-68.201 -139.224)" fill="#fff"/>
    <path id="パス_87" data-name="パス 87" d="M104.076-1442.48a31.219,31.219,0,0,0-3.318.165c-4.7.51-7.822,1.612-9.836,3.469-1.825,1.683-2.817,4.906-1.409,6.7,1.17,1.489,3.761,1.758,5.714,1.257,2.714-.7,5.274-2.595,7.75-4.424l8.815-6.523a50.188,50.188,0,0,0-7.715-.643" transform="translate(-46.853 -117.66)" fill="#fff"/>
    <path id="パス_88" data-name="パス 88" d="M112.406-1475.468a58.083,58.083,0,0,1,15.732,2.146l6.6-4.883a9.063,9.063,0,0,0,2.878-2.789c.71-1.635-.7-4.178-2.262-6.012a28.985,28.985,0,0,0-4.6-4.325,31.636,31.636,0,0,1-11.12,10.479,60.4,60.4,0,0,1-14.456,6.055c1.219-.232,2.375-.388,3.408-.5a38,38,0,0,1,3.822-.17" transform="translate(-55.463 -91.9)" fill="#fff"/>
    <path id="パス_89" data-name="パス 89" d="M72.57-1506.47c-9.519,0-19.556,3.034-29.835,9.028-2.993,1.744-5.9,4.495-5.218,6.419.337.95,1.693,1.877,3.626,2.481,8.737,2.737,26.913.733,39.025-6.522a25.119,25.119,0,0,0,8.609-7.955,39.024,39.024,0,0,0-16.2-3.45Z" transform="translate(-19.731 -83.916)" fill="#fff"/>
  </g>
</svg>
